<svg width="20" height="18" viewBox="0 0 20 18" fill="none" xmlns="http://www.w3.org/2000/svg">
<path d="M4.05157 2H17.9331C17.9777 2.00743 18 2.03345 18 2.07805V11.9568C18 12.0014 17.9777 12.0237 17.9331 12.0237H15.0118V13.9303C15.0118 13.9823 14.9858 14.0084 14.9338 14.0084H7.00627L4.01812 16.9631H3.98467V14.0084H2.0669C2.0223 14.0084 2 13.9823 2 13.9303V5.0662C2.00743 5.01417 2.02973 4.98815 2.0669 4.98815H3.98467V2.07805C3.9921 2.02602 4.0144 2 4.05157 2ZM4.98815 3.01463V4.98815H14.9338C14.9858 4.99559 15.0118 5.0216 15.0118 5.0662V10.9756H16.9854V3.01463H4.98815ZM3.01463 6.00279V12.9937H4.92125C4.96585 13.0012 4.98815 13.0235 4.98815 13.0606V14.5436H5.03275C6.04367 13.5103 6.56771 12.9937 6.60488 12.9937H13.9972V6.00279H3.01463Z" fill="white"/>
</svg>
