<svg width="89" height="39" viewBox="0 0 89 39" fill="none" xmlns="http://www.w3.org/2000/svg">
<g clip-path="url(#clip0)">
<path d="M74.7556 19.7293L62.5723 31.9126C61.5772 30.9175 61.0182 29.5678 61.0182 28.1605C61.0182 26.7532 61.5772 25.4035 62.5723 24.4084L67.2942 19.6832L62.5196 14.9087C61.5384 13.9256 60.9873 12.5934 60.9873 11.2044C60.9873 9.81536 61.5384 8.4831 62.5196 7.5V7.5L74.7556 19.7293Z" fill="white"/>
<path d="M67.2354 19.6832L79.4186 7.5C80.4137 8.49512 80.9728 9.8448 80.9728 11.2521C80.9728 12.6594 80.4137 14.0091 79.4186 15.0042L74.6968 19.7293L79.4713 24.5039C80.4525 25.487 81.0036 26.8192 81.0036 28.2082C81.0036 29.5972 80.4525 30.9295 79.4713 31.9126L67.2354 19.6832Z" fill="white"/>
<path d="M46.2024 7.5C43.7882 7.5 41.4282 8.21589 39.4209 9.55713C37.4136 10.8984 35.8491 12.8047 34.9252 15.0351C34.0014 17.2656 33.7597 19.7198 34.2306 22.0876C34.7016 24.4554 35.8642 26.6304 37.5712 28.3374C39.2783 30.0445 41.4533 31.2071 43.8211 31.678C46.1888 32.149 48.6431 31.9073 50.8735 30.9834C53.1039 30.0596 55.0103 28.4951 56.3515 26.4877C57.6928 24.4804 58.4087 22.1205 58.4087 19.7063C58.4087 16.469 57.1226 13.3643 54.8335 11.0751C52.5444 8.78602 49.4397 7.5 46.2024 7.5ZM46.2024 26.6688C44.8253 26.6688 43.4792 26.2605 42.3342 25.4954C41.1892 24.7304 40.2968 23.643 39.7698 22.3707C39.2428 21.0985 39.105 19.6986 39.3736 18.348C39.6423 16.9974 40.3054 15.7567 41.2791 14.783C42.2528 13.8093 43.4935 13.1462 44.8441 12.8775C46.1947 12.6089 47.5946 12.7467 48.8668 13.2737C50.1391 13.8007 51.2265 14.6931 51.9915 15.8381C52.7566 16.9831 53.1649 18.3292 53.1649 19.7063C53.1649 21.5529 52.4314 23.3238 51.1257 24.6296C49.8199 25.9353 48.049 26.6688 46.2024 26.6688Z" fill="white"/>
<path d="M53.165 19.7063H58.4088V31.9126C57.7201 31.9126 57.0383 31.777 56.4021 31.5134C55.7659 31.2499 55.1878 30.8637 54.7009 30.3767C54.214 29.8898 53.8277 29.3117 53.5642 28.6755C53.3007 28.0393 53.165 27.3575 53.165 26.6689V19.7063Z" fill="white"/>
<path d="M7 19.7063C7 22.1205 7.71589 24.4804 9.05713 26.4877C10.3984 28.4951 12.3047 30.0596 14.5351 30.9834C16.7655 31.9073 19.2198 32.149 21.5876 31.678C23.9554 31.2071 26.1304 30.0445 27.8374 28.3374C29.5445 26.6304 30.7071 24.4554 31.178 22.0876C31.649 19.7198 31.4073 17.2656 30.4834 15.0351C29.5596 12.8047 27.9951 10.8984 25.9877 9.55713C23.9804 8.21589 21.6205 7.5 19.2063 7.5C15.969 7.5 12.8643 8.78602 10.5751 11.0751C8.28602 13.3643 7 16.469 7 19.7063H7ZM12.2437 19.7063C12.2437 18.3292 12.6521 16.9831 13.4171 15.8381C14.1822 14.6931 15.2696 13.8007 16.5418 13.2737C17.8141 12.7467 19.214 12.6089 20.5646 12.8775C21.9152 13.1462 23.1558 13.8093 24.1296 14.783C25.1033 15.7567 25.7664 16.9974 26.0351 18.348C26.3037 19.6986 26.1658 21.0985 25.6388 22.3707C25.1119 23.643 24.2195 24.7304 23.0745 25.4954C21.9295 26.2605 20.5834 26.6688 19.2063 26.6688C17.3597 26.6688 15.5887 25.9353 14.283 24.6296C12.9773 23.3238 12.2437 21.5529 12.2437 19.7063Z" fill="white"/>
<path d="M7.00041 37.158L7.00041 19.6651H12.2441L12.2441 31.9126C12.2444 32.6013 12.1089 33.2834 11.8455 33.9198C11.582 34.5562 11.1958 35.1344 10.7089 35.6215C10.2219 36.1086 9.64378 36.495 9.00748 36.7586C8.37117 37.0223 7.68916 37.158 7.00041 37.158Z" fill="white"/>
</g>
<defs>
<clipPath id="clip0">
<rect width="74" height="29.658" fill="white" transform="translate(7 7.5)"/>
</clipPath>
</defs>
</svg>
