<svg width="670" height="214" viewBox="0 0 670 214" fill="none" xmlns="http://www.w3.org/2000/svg">
<g clip-path="url(#clip0)">
<path d="M618.919 106.718C618.919 106.718 612.764 106.25 613.31 120.119C613.855 133.987 615.258 141.31 615.258 141.31C615.258 141.31 615.102 144.349 612.686 143.804C610.271 143.258 605.83 140.22 603.649 142.479C601.467 144.739 602.168 148.322 605.207 152.53C608.246 156.737 614.556 166.086 615.102 166.943C615.647 167.8 615.881 169.359 614.167 169.203C612.453 169.047 601.078 165.229 599.597 170.683C598.117 176.137 608.479 186.421 609.57 187.59C610.661 188.758 610.739 189.46 610.271 190.161C609.804 190.862 606.142 189.226 602.87 188.213C599.597 187.278 595.624 186.733 595.001 189.927C594.377 193.199 598.974 202.705 616.115 212.677L624.373 216.806L632.164 211.82C648.214 200.133 651.798 190.239 650.863 187.044C649.928 183.85 646.032 184.785 642.916 186.109C639.722 187.356 636.216 189.382 635.748 188.758C635.203 188.135 635.203 187.356 636.216 186.109C637.229 184.863 646.5 173.644 644.474 168.268C642.449 162.892 631.463 167.878 629.827 168.19C628.191 168.502 628.269 166.943 628.736 166.008C629.204 165.073 634.58 155.101 637.151 150.66C639.722 146.219 640.189 142.557 637.696 140.531C635.203 138.506 631.151 141.934 628.814 142.791C626.477 143.648 626.009 140.609 626.009 140.609C626.009 140.609 626.633 133.13 625.854 119.34C625.074 105.549 618.764 106.64 618.764 106.64" fill="#DFE7EF"/>
<path d="M621.2 188.7C621.2 188.7 621.2 188.8 621.2 189.1C621.2 189.4 621.2 189.7 621.3 190.2C621.4 191.2 621.5 192.6 621.6 194.4C621.8 198 622.1 203.3 622.5 209.8C623.2 222.8 624.1 240.8 624.9 260.8C625.7 280.8 626.6 298.7 627.2 311.8C627.5 318.3 627.8 323.6 628 327.2C628.1 329 628.2 330.4 628.2 331.4C628.2 331.9 628.2 332.2 628.2 332.5C628.2 332.6 628.2 332.7 628.2 332.9C628.2 332.9 628.2 332.8 628.2 332.5C628.2 332.2 628.2 331.9 628.1 331.4C628 330.4 627.9 329 627.8 327.2C627.6 323.6 627.3 318.3 626.9 311.8C626.2 298.8 625.3 280.7 624.5 260.8C623.7 240.9 622.8 222.9 622.2 209.8C621.9 203.3 621.6 198 621.4 194.4C621.3 192.6 621.2 191.2 621.2 190.2C621.2 189.7 621.2 189.4 621.2 189.1C621.2 188.9 621.2 188.8 621.2 188.7Z" fill="#E0E0E0"/>
<path d="M534.999 6.5H458.899V132.4H534.999V6.5Z" fill="#D5E0EA"/>
<path d="M531.7 9H462.1V129.8H531.7V9Z" fill="#FAFAFA"/>
<path d="M518.199 24.7H475.399V114.1H518.199V24.7Z" fill="#D5E0EA"/>
<path d="M475.399 82.5C475.299 74.1 482.799 66 491.099 64.8C495.099 64.2 499.199 65 502.899 63.5C509.499 60.8 511.599 52.1 518.199 49.5L518.499 114.1H475.399V82.5Z" fill="#DFE7EF"/>
<path d="M360.9 115.8L417.2 147L415.1 150.9L359.2 119.1L360.9 115.8Z" fill="#E0E0E0"/>
<path d="M358.1 112.8L360.7 108.9L362.2 109.8L359.9 113.8L358.1 112.8Z" fill="#E0E0E0"/>
<path d="M410.8 142L413.7 143.7L404.3 203.9L399.8 204L410.8 142Z" fill="#E0E0E0"/>
<path d="M386.8 210.2C386.8 210.2 393.7 203.2 402.9 203.8C408.2 204 413.2 206.3 416.8 210.2H386.8Z" fill="#E0E0E0"/>
<path d="M358.1 140.1L335.8 127.2L342.2 116C345.8 109.8 353.6 107.7 359.8 111.3C366 114.9 368.1 122.7 364.5 128.9L358.1 140.1Z" fill="#E0E0E0"/>
<path d="M229.899 203.8H158.399V207.3H229.899V203.8Z" fill="#EBEBEB"/>
<path d="M240.999 207.2L254.399 157H198.499L186.399 207.2H240.999Z" fill="#D5E0EA"/>
<path d="M189.7 203.4H239.6L251.2 159.3H201.1L189.7 203.4Z" fill="#DFE7EF"/>
<path d="M402.9 207.5H128.6V221.6H402.9V207.5Z" fill="#DFE7EF"/>
<path d="M43.4997 169.2L94.7997 168.3L127.4 291.4L57.8997 292L31.7997 184.1C30.1997 177.6 34.1997 171 40.6997 169.5C41.5997 169.3 42.5997 169.2 43.4997 169.2Z" fill="#DFE7EF"/>
<path d="M89 168.3L114.4 291.5H133.9L113.5 182.6C112 174.3 104.7 168.3 96.3 168.3H89Z" fill="#D5E0EA"/>
<path d="M27.3998 125H24.7998V148.4H27.3998V125Z" fill="#DFE7EF"/>
<path d="M113.7 125H111.1V148.4H113.7V125Z" fill="#DFE7EF"/>
<path d="M124.9 115.6H15.0996V125H124.9V115.6Z" fill="#D5E0EA"/>
<path d="M103.2 45H88.0996V115.6H103.2V45Z" fill="#F5F5F5"/>
<path d="M98.8994 98.6C98.8994 100.3 97.5994 101.6 95.8994 101.6C94.1994 101.6 92.8994 100.3 92.8994 98.6C92.8994 96.9 94.1994 95.6 95.8994 95.6C97.5994 95.6 98.8994 97 98.8994 98.6Z" fill="#DFE7EF"/>
<path d="M98.1 63.7H93.5V92.5H98.1V63.7Z" fill="#DFE7EF"/>
<path d="M87.8002 45H72.7002V115.6H87.8002V45Z" fill="#D5E0EA"/>
<path d="M83.5996 98.6C83.5996 100.3 82.2996 101.6 80.5996 101.6C78.8996 101.6 77.5996 100.3 77.5996 98.6C77.5996 96.9 78.8996 95.6 80.5996 95.6C82.2996 95.6 83.5996 97 83.5996 98.6Z" fill="#FAFAFA"/>
<path d="M82.6996 63.7H78.0996V92.5H82.6996V63.7Z" fill="#FAFAFA"/>
<path d="M73.1 45H58V115.6H73.1V45Z" fill="#DFE7EF"/>
<path d="M68.8994 98.6C68.8994 100.3 67.5994 101.6 65.8994 101.6C64.1994 101.6 62.8994 100.3 62.8994 98.6C62.8994 96.9 64.1994 95.6 65.8994 95.6C67.5994 95.6 68.8994 97 68.8994 98.6Z" fill="#FAFAFA"/>
<path d="M68.1 63.7H63.5V92.5H68.1V63.7Z" fill="#FAFAFA"/>
<path d="M39.2996 114.5L57.4996 52.4L51.1996 49.7L32.5996 112.2L39.2996 114.5Z" fill="#DFE7EF"/>
<path d="M81.3005 268.5C88.8005 268.7 94.5005 262 98.0005 255.3C102.701 245.9 104.301 235.2 102.501 224.9C101.801 221 100.401 216.9 96.9005 215C93.4005 213.1 88.8005 214.4 85.9005 217C83.0005 219.6 81.3005 223.5 80.2005 227.3C76.1005 240.5 76.9005 255.5 81.3005 268.5Z" fill="#3DC2DF"/>
<path d="M519.7 75.1C519.9 79 519.9 83.3 517.5 86.4C516.2 88.1 514.2 89.3 513.2 91.2C512 93.6 512.7 96.6 512 99.3C511.4 101.7 509.9 103.7 508.9 105.9C507.4 109.3 507.6 113.2 509.5 116.4C511.4 119.6 515 121.4 518.7 121.1C521.8 120.7 524.4 118.8 526.5 116.5C536.2 105.9 535.5 89.5 524.9 79.8C524.7 79.6 524.5 79.4 524.3 79.3" fill="#A96C6C"/>
<path d="M567.1 53.5C566.8 57.3 567.9 61.1 570.2 64.2C572.5 67.2 575.3 70.1 575.6 73.9C575.8 76.7 574.5 79.4 574.6 82.2C574.8 88.9 582.7 93 584.1 99.6C585.2 104.8 581.9 109.9 576.7 110.9C574.8 111.3 572.8 111.1 570.9 110.3C566.1 108.2 563.8 102.6 563.8 97.4C563.8 92.2 565.6 87.2 566.8 82.1C569 73 567.8 65.2 566.3 56" fill="#A96C6C"/>
<path d="M572.001 84.6C570.701 82.3 569.101 79.9 569.301 77.3C569.501 74.3 572.001 71.6 571.401 68.7C571.001 66.9 569.501 65.5 568.601 63.9C566.901 61 567.101 57.4 567.101 54C567.101 50.6 566.501 46.9 563.901 44.8C561.301 42.7 557.901 42.8 554.901 41.8C553.401 41.2 551.901 40.4 550.401 39.8C547.101 38.6 543.101 38 539.901 39.5C537.601 40.4 535.501 41.7 533.801 43.5C531.301 45.5 530.401 50.3 529.801 53.5C529.001 57.4 528.801 61.6 526.801 65C525.601 67.1 523.701 68.8 522.201 70.7C520.701 72.6 519.301 74.9 519.401 77.3C519.501 80.1 521.501 82.7 521.101 85.4C520.901 87 519.901 88.3 519.401 89.9C518.601 92.8 520.101 95.9 522.301 97.8C524.501 99.7 527.301 100.9 530.101 101.9C532.901 102.9 535.701 103.9 538.101 105.8C540.501 107.7 542.401 110.6 545.401 111.4C548.001 112.1 550.701 111.1 553.101 110.1C557.601 108.3 562.301 106.3 565.301 102.5C566.701 100.8 567.601 98.7 569.101 97.1C570.601 95.5 572.901 94.2 573.701 92.1C574.601 89.6 573.401 86.9 572.001 84.6Z" fill="#A96C6C"/>
<path d="M506.2 232.1C508.4 232.9 511.9 224 512.3 223.3C512.7 222.6 513.7 223.1 513.4 223.7C512.9 224.6 507.7 234.3 509.8 235.1C511 235.5 511.5 233.3 511.5 233.3C511.5 233.3 515.7 223.8 516.6 224.2C517.5 224.6 515.3 230.2 514.4 232.1C513.5 234 514 235.1 515.2 234.8C516 234.6 518.9 229 519.7 227.2C520.5 225.4 522.8 220.2 523.7 223.7C524.6 227.2 526.7 229.4 527.6 229.6C528.2 229.7 528.8 229.2 528.8 228.6C528.8 228.3 528.7 227.9 528.5 227.7C527.8 226.7 527.3 225.6 526.9 224.5C526.5 223.6 526.3 222.7 526.4 221.7C526.4 221.2 526.5 220.7 526.5 220.2L526.6 218.7C526.7 216.9 526.7 215.9 526.7 215.9L529.6 140.5L513.1 122.1L512.7 213.6H512.8C510.5 216.3 508.4 219.2 506.4 222.2C503.7 226.7 504.1 227 504.6 227.2C506.1 227.8 509.7 219.5 510 221.7C510.3 223.9 504.5 231.5 506.2 232.1Z" fill="#EB996E"/>
<path d="M588.9 375.3C588.9 375.3 561.7 281.1 561.1 278.1C560.6 275.4 573.4 210.4 575.2 193.5L536.5 193.9C536.5 193.9 536.5 194 536.5 194.2L517.8 194.7L527.6 382.5L548.2 382.8L547.3 319.6C557.5 349.3 570.3 382.9 570.3 382.9L588.9 375.3Z" fill="#FFBE9D"/>
<path d="M587 129.4C587 129.4 585.8 126.7 583.7 109.7C582.8 102.3 577.7 97.7 572.3 94.9V94.8L571.8 94.7C567.3 92.5 562.5 91.2 557.6 90.6L538.5 90.3C538.5 90.3 525.2 89.3 515.6 98.3C512.4 101.2 509.2 127.6 509.2 127.6L518.8 131L518.7 127.1C518.7 127.1 518.3 135 520.9 139.6L527.1 150.4L523 169.5C520.5 176.8 512.1 203.4 515.4 229.8C519.4 262.5 520.1 272 520.1 272L566.3 278.3C566.3 278.3 584.8 209.1 578.4 181.7C574.1 162.8 570.7 163.7 569.7 159.6L570.9 130.2L587 129.4Z" fill="#263238"/>
<path d="M544.501 206.8C544.801 207.4 540.001 210.8 533.601 214.3C527.201 217.8 521.801 220.2 521.501 219.6C521.201 219 526.001 215.6 532.401 212.1C538.801 208.6 544.201 206.1 544.501 206.8Z" fill="#FAFAFA"/>
<path d="M544.701 201.7C545.001 202.3 543.601 203.7 541.501 204.8C539.401 205.9 537.501 206.2 537.201 205.6C536.901 205 538.301 203.6 540.401 202.5C542.501 201.4 544.401 201.1 544.701 201.7Z" fill="#FAFAFA"/>
<path d="M577.7 181.9C578.1 182.5 574.201 185.6 568.901 188.4C563.601 191.2 558.8 192.6 558.5 192C558.2 191.4 562.4 188.9 567.7 186.1C573 183.3 577.4 181.3 577.7 181.9Z" fill="#FAFAFA"/>
<path d="M573.8 175.2C574.3 175.7 573.6 177.2 571.9 178.3C570.2 179.4 568.6 179.5 568.3 178.8C568 178.1 569.1 177 570.5 176.1C571.9 175.2 573.3 174.7 573.8 175.2Z" fill="#FAFAFA"/>
<path d="M540.6 176.1C541 176.7 538.1 179.4 534 182C529.9 184.6 526.4 186.4 526 185.8C525.6 185.2 528.5 182.5 532.6 179.8C536.7 177.1 540.2 175.5 540.6 176.1Z" fill="#FAFAFA"/>
<path d="M556.9 142.4C557.3 143 553.6 145.8 548.6 148.7C543.6 151.6 539.4 153.3 539 152.7C538.6 152.1 542.3 149.3 547.3 146.4C552.3 143.5 556.5 141.8 556.9 142.4Z" fill="#FAFAFA"/>
<path d="M558.1 136.3C558.3 137 556.5 138.2 554.1 139.3C551.7 140.4 549.6 141.1 549.2 140.5C548.8 139.9 550.4 138.1 553 136.9C555.6 135.7 557.9 135.6 558.1 136.3Z" fill="#FAFAFA"/>
<path d="M546.4 124.4C546.7 125 542.4 127.9 536.7 130.8C531 133.7 526.2 135.6 525.8 134.9C525.4 134.2 529.8 131.4 535.5 128.5C541.2 125.6 546 123.7 546.4 124.4Z" fill="#FAFAFA"/>
<path d="M547.701 118.1C548.001 118.7 546.301 120.3 543.901 121.5C541.501 122.7 539.201 123.3 538.901 122.6C538.601 121.9 540.301 120.4 542.701 119.2C545.101 118 547.301 117.4 547.701 118.1Z" fill="#FAFAFA"/>
<path d="M578.7 105C579.2 105.5 576 108.9 571.3 111.9C566.6 114.9 562.3 116.4 562 115.8C561.7 115.2 565.4 112.7 569.9 109.8C574.4 106.9 578.3 104.4 578.7 105Z" fill="#FAFAFA"/>
<path d="M535.3 104.3C535.7 104.9 530.5 108.7 523.7 112.6C516.9 116.5 511.1 119.3 510.7 118.7C510.3 118.1 515.5 114.3 522.3 110.4C529.1 106.5 535 103.7 535.3 104.3Z" fill="#FAFAFA"/>
<path d="M531.9 101.9C532.2 102.5 531.1 103.8 529.3 104.7C527.5 105.6 525.8 105.8 525.5 105.2C525.2 104.6 526.3 103.3 528.1 102.4C529.9 101.5 531.5 101.3 531.9 101.9Z" fill="#FAFAFA"/>
<path d="M567.4 117.5C567.6 118.2 566.3 119.3 564.6 120.3C562.9 121.3 561.3 122.1 560.8 121.6C560.3 121.1 561.2 119.4 563.2 118.1C565.2 116.8 567.1 116.9 567.4 117.5Z" fill="#FAFAFA"/>
<path d="M568 93.7C568.4 94.3 567.2 95.8 565.3 97C563.4 98.2 561.6 98.7 561.2 98.1C560.8 97.5 562 96 563.9 94.8C565.8 93.6 567.6 93.1 568 93.7Z" fill="#FAFAFA"/>
<path d="M551.1 184.4C551.4 185 550.5 186.2 549 187.1C547.5 188 545.9 188.1 545.6 187.5C545.3 186.9 546.2 185.7 547.8 184.8C549.4 183.9 550.8 183.8 551.1 184.4Z" fill="#FAFAFA"/>
<path d="M572.401 204.9C572.801 205.5 568.8 208.7 563.3 211.5C557.8 214.3 552.8 215.5 552.6 214.9C552.4 214.3 556.7 211.9 562.2 209.2C567.7 206.5 572.001 204.3 572.401 204.9Z" fill="#FAFAFA"/>
<path d="M538 93.2C538.5 87.9 538.9 82.3 538.9 82.3C538.9 82.3 532.2 80.5 531.6 71.4C531.1 62.8 533.4 49.5 533.4 49.5L533.6 47.6C544.2 41.9 556 44.1 562.2 52.6L557.4 95.7C556.8 100.7 552.1 104.2 546.7 103.6C541.5 102.9 537.5 98.2 538 93.2Z" fill="#FFBE9D"/>
<path d="M533.8 58.6C533.7 59.2 534.2 59.8 534.8 59.9C535.4 60 536 59.6 536.1 59C536.2 58.4 535.7 57.8 535.1 57.7C534.4 57.6 533.9 58 533.8 58.6Z" fill="#263238"/>
<path d="M533.8 57.4C533.9 57.6 534.9 57 536.1 57.1C537.3 57.2 538.2 57.9 538.3 57.8C538.4 57.7 538.301 57.5 537.901 57.1C537.401 56.7 536.8 56.4 536.1 56.4C535.5 56.3 534.8 56.5 534.3 56.8C533.8 57 533.7 57.3 533.8 57.4Z" fill="#263238"/>
<path d="M546.6 60.3C546.5 60.9 547 61.5 547.6 61.6C548.2 61.7 548.8 61.3 548.9 60.7C549 60.1 548.5 59.5 547.9 59.4C547.2 59.3 546.7 59.7 546.6 60.3Z" fill="#263238"/>
<path d="M546.6 59.1C546.7 59.3 547.7 58.7 548.9 58.8C550.1 58.9 551 59.6 551.1 59.5C551.2 59.4 551.1 59.2 550.7 58.8C550.2 58.4 549.6 58.1 548.9 58.1C548.3 58 547.6 58.2 547.1 58.5C546.7 58.7 546.5 59 546.6 59.1Z" fill="#263238"/>
<path d="M541.2 67.8C540.6 67.5 539.9 67.4 539.2 67.2C538.9 67.1 538.6 67 538.6 66.8C538.6 66.5 538.7 66.2 538.9 65.9L540.1 63.6C541.2 61.7 542.1 59.6 542.8 57.5C541.6 59.4 540.5 61.3 539.6 63.3C539.2 64.1 538.8 64.9 538.5 65.6C538.3 66 538.2 66.4 538.2 66.8C538.3 67 538.4 67.2 538.7 67.3C538.9 67.4 539 67.4 539.2 67.4C539.8 67.7 540.5 67.8 541.2 67.8Z" fill="#263238"/>
<path d="M538.9 82.2C543.1 82.7 547.3 82 551.2 80.2C551.2 80.2 547.7 86 538.9 84.3V82.2Z" fill="#EB996E"/>
<path d="M541.4 70.8C541.9 70.3 542.7 70 543.5 70.2C544 70.3 544.5 70.6 544.8 71.1C545.1 71.5 545.1 72.1 544.8 72.6C544.3 73 543.7 73.1 543.1 72.8C542.5 72.5 542 72.2 541.6 71.7C541.5 71.6 541.4 71.5 541.3 71.3C541.3 71.1 541.3 71 541.4 70.8Z" fill="#EB996E"/>
<path d="M544.7 69C544.5 69 544.4 70.3 543.1 71.1C541.8 71.9 540.4 71.7 540.4 71.8C540.4 71.9 540.7 72.1 541.3 72.2C542.1 72.3 542.9 72.1 543.5 71.7C544.1 71.3 544.6 70.6 544.7 69.9C544.9 69.3 544.8 69 544.7 69Z" fill="#263238"/>
<path d="M538.1 55.7C538 55.9 537.1 55.7 536.1 55.7C535.1 55.7 534.2 55.8 534.1 55.7C534 55.6 534.9 55 536.1 55C537.3 55 538.2 55.6 538.1 55.7Z" fill="#A96C6C"/>
<path d="M550.8 56.3C550.8 56.3 550.8 56.2 550.8 56.1V56.3C550.2 56 549.5 55.9 548.8 55.8C547.6 55.7 546.7 56.1 546.6 55.9C546.5 55.7 546.7 55.6 547.1 55.4C547.7 55.1 548.3 55 548.9 55.1C549.7 55.1 550.4 55.5 551 56.1L551.1 56.2C550.9 56.3 550.9 56.3 550.8 56.3Z" fill="#A96C6C"/>
<path d="M551.2 64.5C551.1 64.5 551 64.4 551 64.2C551 64 551 63.9 551.2 63.8C551.4 63.7 551.4 63.9 551.4 64.1C551.4 64.3 551.3 64.5 551.2 64.5Z" fill="#EB996E"/>
<path d="M548.301 64.4C548.201 64.4 548.101 64.2 548.201 64C548.301 63.8 548.401 63.8 548.501 63.8C548.601 63.9 548.601 64 548.501 64.1C548.401 64.3 548.401 64.4 548.301 64.4Z" fill="#EB996E"/>
<path d="M549.8 65.7C549.7 65.7 549.6 65.6 549.5 65.5C549.4 65.4 549.6 65.3 549.7 65.2C549.8 65.2 549.9 65.3 550 65.4C550 65.6 549.9 65.7 549.8 65.7Z" fill="#EB996E"/>
<path d="M533.301 63.9C533.201 63.9 533.101 63.7 533.201 63.5C533.301 63.3 533.301 63.2 533.401 63.2C533.501 63.2 533.601 63.4 533.501 63.6C533.401 63.8 533.401 63.9 533.301 63.9Z" fill="#EB996E"/>
<path d="M536.2 63.9C536.1 63.9 536 63.8 536 63.6C536 63.4 536.1 63.3 536.2 63.3C536.3 63.3 536.4 63.4 536.4 63.6C536.4 63.8 536.3 63.9 536.2 63.9Z" fill="#EB996E"/>
<path d="M534.801 64.9C534.701 64.9 534.601 64.8 534.601 64.6C534.601 64.4 534.701 64.3 534.801 64.3C534.901 64.3 535.001 64.4 535.001 64.6C535.001 64.8 534.901 64.9 534.801 64.9Z" fill="#EB996E"/>
<path d="M530.9 60.5C530.6 57.6 532.5 54.9 535.3 54.1C538.1 53.5 541.1 54.9 543.6 53.6C545.6 52.6 546.5 50.1 548.5 49.1C550.2 48.3 552.1 48.7 554 48.8C555.9 48.9 558 48.2 558.5 46.4C554.5 43.7 550.1 41.5 545.3 41.1C540.5 40.7 535.4 42.5 532.7 46.4C530 50.3 530.2 55.3 530.4 59.9" fill="#A96C6C"/>
<path d="M552.7 47.7C552.3 50.1 552.3 52.8 553.8 54.8C554.5 55.6 555.2 56.5 555.7 57.5C556.5 59.6 555.4 61.9 555.6 64.1C555.7 65.7 556.5 67.2 557.8 68.3C558.7 69.1 560 69.4 561.1 68.9C561.8 68.3 562.3 67.4 562.4 66.5C563.3 63.1 563.8 59.6 563.9 56.1C564.4 53.4 563.1 50.8 560.6 49.7C559.4 48.9 558.1 48.2 556.8 47.5C556 47 555.2 46.8 554.3 46.8C553.4 46.8 552.6 47.5 552.5 48.4" fill="#A96C6C"/>
<path d="M558.101 71C558.601 71.4 559.401 71.6 560.001 71.4C560.701 71.2 561.201 70.9 561.701 70.4C562.401 69.8 563.001 69 563.401 68.1C563.801 67.2 563.801 66.2 563.501 65.3C563.101 64.4 562.401 63.7 561.501 63.4C560.601 63 559.701 62.9 558.701 63.1L558.101 71Z" fill="#FFBE9D"/>
<path d="M559.1 69.1999C559 69.1999 559.4 69.8 560.2 69.6C560.6 69.4 561 69.0999 561.2 68.6999C561.5 68.1999 561.6 67.6999 561.7 67.1999C561.8 66.5999 561.7 66.1 561.4 65.6C561.2 65.2 560.8 64.9 560.3 64.8C559.5 64.7 559.2 65.3 559.3 65.4C559.4 65.5 559.7 65.2 560.2 65.3C560.9 65.6 561.2 66.4 561 67.1C560.9 68 560.5 68.9 560 69.1C559.5 69.3 559.1 69.1999 559.1 69.1999Z" fill="#EB996E"/>
<path d="M577.1 94.7C577.3 94.7 577.5 94.6 577.6 94.6C578.1 94.5 578.6 94.3 578.9 93.9C579.5 93.3 579.9 92.6 580 91.8C580.2 90.8 580 89.7 579.5 88.7C578.8 87.6 578 86.6 577 85.7C575.8 84.7 574.8 83.5 573.9 82.3C573.4 81.6 573.1 80.8 572.9 79.9C572.8 79 572.8 78.1 573.1 77.2C573.7 75.5 574.8 74 575.5 72.3C576.2 70.7 576.2 68.9 575.4 67.3C574.7 65.8 573.8 64.4 572.6 63.3C571.5 62.2 570.3 61.2 569.2 60.2C568.2 59.3 567.3 58.3 566.6 57.2C565.5 55.6 565.1 53.6 565.4 51.6C565.5 51.1 565.7 50.6 566 50.1C566.1 49.9 566.2 49.8 566.3 49.7C566 50.3 565.7 51 565.6 51.7C565.4 53.6 565.9 55.5 566.9 57.1C567.6 58.2 568.5 59.2 569.5 60C570.5 61 571.7 61.9 572.9 63.1C574.2 64.3 575.2 65.7 575.9 67.2C576.3 68 576.5 68.9 576.5 69.9C576.5 70.9 576.3 71.8 576 72.7C575.3 74.5 574.1 75.9 573.6 77.5C573 79 573.3 80.8 574.2 82.1C575.1 83.3 576.1 84.5 577.2 85.5C578.2 86.4 579 87.5 579.7 88.6C580 89.1 580.2 89.7 580.3 90.3C580.4 90.8 580.3 91.4 580.2 91.9C580 92.7 579.6 93.5 578.9 94.1C578.5 94.5 578 94.7 577.4 94.7C577.4 94.7999 577.3 94.7999 577.1 94.7Z" fill="#A96C6C"/>
<path d="M585.8 129.4C585.2 138.1 585.7 143.1 582.9 156.6C577.7 181.6 521 171.5 521 171.5C516.6 171.6 513.6 171.3 510.7 171.6C507.2 171.9 505.7 171.8 505.7 171.1C505.7 170.2 505.6 170.5 512 169.1C512 169.1 502.9 171.1 504.5 169.1C505.2 168.2 512.8 166.5 512.8 166.5C506.9 168.5 504.3 168.3 504.1 167.4C503.7 166.1 512.9 164 512.9 164C512.9 164 505.9 165.7 504.6 165.6C503.3 165.5 504.4 164.4 505.5 163.7C506.6 163 515.1 159.4 517.4 158.3C518.2 158 518.6 157.2 518.3 156.4C518.3 156.3 518.2 156.2 518.2 156.2C516 153.2 515.8 149.6 516.2 148.6C516.5 148 517.2 147.8 517.8 148.1C518.1 148.3 518.4 148.6 518.4 149C518.8 150.2 519.4 151.4 520.1 152.4C520.6 153.3 521.3 154 522.1 154.7C523 155.4 523.8 156 524.5 156.5C530.3 157.1 547 158.3 560.9 153C566 151.1 566.4 129.6 566.4 129.6L585.8 129.4Z" fill="#FFBE9D"/>
<path d="M515.801 168.4C515.801 168.6 513.901 169.1 511.501 169.6C510.101 170 508.601 170.2 507.101 170.2C507.101 170 509.001 169.5 511.401 169C512.801 168.6 514.301 168.4 515.801 168.4Z" fill="#EB996E"/>
<path d="M515.5 165.9C515.5 166.1 513.5 166.7 511 167.4C509.5 167.9 507.9 168.3 506.3 168.4C507.7 167.7 509.3 167.2 510.8 166.9C512.4 166.3 513.9 166 515.5 165.9Z" fill="#EB996E"/>
<path d="M515.2 163.3C513.8 164 512.4 164.5 510.9 164.8C509.5 165.3 508 165.6 506.5 165.7C507.8 165 509.3 164.5 510.8 164.2C512.2 163.7 513.7 163.4 515.2 163.3Z" fill="#EB996E"/>
<path d="M392.5 85.9L412.4 84.3C412.5 82 412.4 73 412.4 73C412.4 73 420.7 71.7 420.8 63.4C420.9 55.1 419.5 36 419.5 36C409.9 31.9 398.8 33.3 390.5 39.7L389.3 40.6L392.5 85.9Z" fill="url(#paint0_linear)"/>
<path d="M412.401 72.8C408.601 72.9 404.801 71.8 401.601 69.7C401.601 69.7 404.101 75.7 412.401 74.9V72.8Z" fill="#AA6550"/>
<path d="M390.3 49.2C390.2 49.1 384.6 47.5 384.8 53.2C385 58.9 390.6 57.5 390.7 57.4C390.8 57.3 390.3 49.2 390.3 49.2Z" fill="#B78876"/>
<path d="M388.8 55.2C388.8 55.2 388.7 55.3 388.5 55.4C388.3 55.5 388 55.5 387.8 55.4C387 55 386.6 54.1 386.6 53.2C386.6 52.7 386.7 52.2 386.8 51.8C386.9 51.4 387.2 51.1 387.5 51C387.7 50.9 388 51 388.1 51.3C388.2 51.4 388.1 51.6 388.2 51.6C388.3 51.6 388.3 51.5 388.3 51.3C388.3 51.2 388.2 51 388.1 51C387.9 50.9 387.7 50.8 387.6 50.9C387.1 51 386.8 51.4 386.6 51.8C386.4 52.3 386.3 52.8 386.3 53.4C386.3 54.4 386.9 55.4 387.8 55.8C388.1 55.9 388.4 55.8 388.7 55.6C388.8 55.3 388.8 55.2 388.8 55.2Z" fill="#AA6550"/>
<path d="M417.6 49C417.6 49.6 417.1 50.2 416.5 50.2C415.9 50.3 415.3 49.8 415.3 49.2C415.3 48.6 415.8 48 416.4 48C417 47.9 417.6 48.3 417.6 49Z" fill="#263238"/>
<path d="M417.9 47.6C417.8 47.8 416.9 47.1 415.6 47.1C414.3 47.1 413.4 47.7 413.3 47.6C413.2 47.5 413.4 47.3 413.8 47C414.3 46.6 415 46.4 415.7 46.4C416.4 46.4 417 46.6 417.6 47C417.8 47.3 418 47.6 417.9 47.6Z" fill="#263238"/>
<path d="M405.1 49.3C405.1 49.9 404.6 50.5 404 50.5C403.4 50.6 402.8 50.1 402.8 49.5C402.8 48.9 403.3 48.3 403.9 48.3C404.5 48.2 405.1 48.6 405.1 49.3Z" fill="#263238"/>
<path d="M405.3 47.9C405.2 48.1 404.3 47.4 403 47.4C401.7 47.4 400.8 48 400.6 47.9C400.4 47.8 400.7 47.6 401.1 47.3C401.6 46.9 402.3 46.7 403 46.7C403.7 46.7 404.3 46.9 404.9 47.3C405.3 47.5 405.4 47.9 405.3 47.9Z" fill="#263238"/>
<path d="M410 57.3C410.7 57.1 411.4 57 412.1 56.9C412.4 56.9 412.7 56.8 412.8 56.6C412.8 56.3 412.8 55.9 412.6 55.6C412.3 54.8 412 54 411.6 53.1C410.7 51 410 48.8 409.4 46.6C410.5 48.6 411.4 50.7 412.1 52.9C412.4 53.8 412.7 54.6 413 55.4C413.2 55.8 413.3 56.2 413.2 56.7C413.1 56.9 412.9 57.1 412.7 57.2C412.5 57.2 412.3 57.3 412.2 57.3C411.3 57.4 410.7 57.4 410 57.3Z" fill="#263238"/>
<path d="M406.2 58.2C406.4 58.2 406.4 59.6 407.6 60.6C408.8 61.6 410.3 61.4 410.3 61.6C410.3 61.8 410 61.9 409.3 61.9C408.5 61.9 407.7 61.6 407.1 61.1C406.5 60.6 406.1 59.9 406 59.1C406 58.6 406.1 58.2 406.2 58.2Z" fill="#263238"/>
<path d="M405.7 42.9C405.6 43.2 404.3 43.1 402.8 43.3C401.3 43.5 400.1 43.9 399.9 43.6C399.8 43.4 400 43.1 400.5 42.8C401.1 42.4 401.9 42.1 402.6 42C403.4 41.9 404.1 42 404.9 42.3C405.5 42.4 405.7 42.7 405.7 42.9Z" fill="#263238"/>
<path d="M417.401 43.9C417.201 44.2 416.301 43.9 415.301 43.9C414.301 43.9 413.301 44.1 413.101 43.8C413.001 43.6 413.101 43.4 413.501 43.1C414.601 42.4 415.901 42.5 417.001 43.2C417.401 43.5 417.501 43.9 417.401 43.9Z" fill="#263238"/>
<path d="M423.501 30.7C423.601 29.7 423.201 28.6 422.401 28C421.501 27.4 420.301 27.5 419.601 28.2C419.901 26.8 419.101 25.5 417.701 25.2C417.601 25.2 417.501 25.2 417.401 25.2C416.001 25.1 414.901 26.1 413.601 26.5C412.301 26.8 410.901 26.6 409.701 26.1C408.501 25.6 407.301 24.9 406.101 24.5C400.601 22.5 394.601 25.3 392.501 30.7C390.601 30.2 388.601 31 387.501 32.6C386.401 34.2 386.001 36.1 386.301 38C386.501 39.3 386.801 40.5 387.301 41.7C387.301 41.8 387.301 41.9 387.301 42C387.401 46.6 387.901 51.9 389.801 52C393.201 52 392.401 45.7 392.401 45.7C396.601 44.1 395.001 37.9 396.001 36.9C397.001 35.9 399.201 33.7 407.901 38.2C411.101 39.6 414.801 40 418.201 39.3H418.401H418.501C419.301 39.1 420.001 38.7 420.701 38.3C421.501 37.8 422.201 37.1 422.501 36.3C422.901 35.4 422.701 34.4 422.001 33.7C422.901 32.8 423.401 31.8 423.501 30.7Z" fill="#263238"/>
<path d="M448.3 120.2C448.3 120.2 451.9 141.8 454.4 142.8C468.2 148.3 484.8 147.9 490.6 147.5C491.3 147 492.1 146.5 493.1 145.7C493.9 145.1 494.6 144.3 495.2 143.5C495.9 142.5 496.5 141.3 497 140.1C497.1 139.5 497.7 139 498.3 139.1C498.7 139.2 499 139.4 499.2 139.7C499.6 140.7 498.7 143.3 497 146.9C497 146.9 496.1 148.8 497.8 149.4C499.5 150 510.2 153.9 511.1 155C512 156.1 511.7 157.2 510.4 157.2C509.1 157.2 502.2 155.3 502.2 155.3C502.2 155.3 511.2 157.3 511.3 158.3C511.4 159.8 508.1 159.9 502.2 157.8C502.2 157.8 511.6 158.7 511.1 160.9C510.8 162 502.4 160.1 502.4 160.1C501.7 161.1 511.1 161 511.1 162.4C511.1 163.1 509.8 163.5 505.3 163.2C502.6 163 498.2 162.7 493.8 162.4V162.5C493.8 162.5 437.6 170.9 433 145.7C429.9 128.7 430.9 129.1 429.9 120" fill="#B78876"/>
<path d="M497.3 158.7C497.2 158.8 496.9 158.3 496.3 157.7C495.5 156.9 494.5 156.4 493.4 156.1L492.8 155.9L493.3 155.5C493.4 155.4 493.6 155.3 493.7 155.2C494.7 154.5 495.5 153.6 496.1 152.5C496.6 151.7 496.8 151.1 496.9 151.1C496.9 151.6 496.8 152.2 496.5 152.7C496 153.9 495.1 154.9 494 155.7L493.6 156L493.5 155.5C494.7 155.8 495.7 156.5 496.5 157.4C497.2 158.1 497.4 158.6 497.3 158.7Z" fill="#AA6550"/>
<path d="M509.8 157.5C509.7 157.7 507.9 157 505.6 156.3C503.3 155.6 501.4 155.1 501.4 154.9C504.3 155.1 507.2 156 509.8 157.5Z" fill="#AA6550"/>
<path d="M509.701 159.6C507.101 159.1 504.601 158.5 502.101 157.8C503.401 157.7 504.801 157.9 506.001 158.3C507.301 158.4 508.501 158.9 509.701 159.6Z" fill="#AA6550"/>
<path d="M378.9 176.3V382.2L409.5 381.1L412.1 201.2L422.5 381.8L453.7 383.3L438.3 178.1L378.9 176.3Z" fill="#263238"/>
<path d="M414.7 178.1C414.9 179.3 415 180.4 415 181.6C415.1 183.8 415.2 186.7 415.2 190.1C415.2 191.7 415.2 193.3 415.2 194.8C415.3 196.1 415 197.4 414.6 198.6C414.3 199.4 413.6 200.1 412.9 200.6C412.3 200.9 412 200.9 412 200.9C412 200.9 412.3 200.8 412.8 200.4C413.5 199.9 414 199.2 414.3 198.5C414.7 197.3 414.9 196.1 414.8 194.8C414.8 193.3 414.7 191.8 414.7 190.2C414.7 186.9 414.7 183.9 414.7 181.7C414.5 180.5 414.5 179.3 414.7 178.1Z" fill="#455A64"/>
<path d="M410 180.4C410.1 180.5 409.6 180.7 409.6 181.4C409.6 181.8 409.7 182.2 410 182.4C410.4 182.6 410.9 182.6 411.2 182.3C411.6 182 411.8 181.5 411.5 181C411.4 180.9 411.4 180.8 411.3 180.8C411 180.5 410.6 180.4 410 180.4L410.1 180.3C410.3 180.4 410.5 180.5 410.5 180.6C410.5 180.7 410.3 180.6 410 180.6H409.8L410 180.4C410.5 180.1 411.2 180.1 411.7 180.5C412.1 180.8 412.3 181.2 412.3 181.6C412.3 182.1 412.1 182.6 411.7 182.9C411.1 183.3 410.4 183.4 409.8 182.9C409.4 182.6 409.2 182 409.3 181.5C409.3 181.2 409.5 180.8 409.8 180.6C409.9 180.4 410 180.4 410 180.4Z" fill="#455A64"/>
<path d="M394.7 179.8C394.8 179.8 395 223.3 395 276.9C395 330.5 394.9 374 394.7 374C394.5 374 394.4 330.5 394.4 276.9C394.4 223.3 394.5 179.8 394.7 179.8Z" fill="#455A64"/>
<path d="M428.6 179.8C428.7 179.8 431 223 433.6 276.3C436.2 329.6 438.3 372.8 438.1 372.8C437.9 372.8 435.7 329.6 433.1 276.3C430.5 223 428.4 179.8 428.6 179.8Z" fill="#455A64"/>
<path d="M403.701 202.9C402.501 203.1 401.301 203.2 400.101 203.1C399.101 203.1 398.201 202.8 397.301 202.5L396.101 202C394.401 201.2 392.901 200 391.901 198.5C387.301 191.7 373.301 171.1 371.301 166.6C369.001 161.2 377.701 119.8 377.701 119.8L360.501 114.2C360.501 114.2 352.101 150.6 352.601 168.5C352.901 179.9 384.101 211.4 384.201 211.4C385.901 214.8 387.801 218.1 389.901 221.3C393.001 225.6 393.401 225.4 393.801 224.9C395.001 223.7 388.701 217.1 390.901 217.7C393.101 218.3 397.701 226.7 398.901 225.4C400.501 223.7 393.701 216.9 393.201 216.3C392.701 215.7 393.601 214.9 394.001 215.5C394.601 216.3 401.601 225 403.101 223.4C404.001 222.5 402.201 221.1 402.201 221.1C402.201 221.1 395.101 213.5 395.801 212.7C396.501 211.9 400.901 216.3 402.301 217.8C403.701 219.3 404.901 219.3 405.101 218.2C405.201 217.4 401.201 212.5 399.801 211C398.401 209.5 394.601 205.4 398.101 205.9C401.601 206.4 404.501 205.4 405.101 204.6C405.701 203.8 404.701 202.6 403.701 202.9Z" fill="#B78876"/>
<path d="M401.001 81.6C400.301 81.4 399.601 81.5 399.001 81.9C398.401 82.3 397.901 82.9 397.601 83.5C397.401 83.9 397.301 84.3 397.101 84.8L396.901 85.5C396.801 85.8 396.701 86.1 396.501 86.3C396.401 86.4 396.201 86.5 396.001 86.6C395.801 86.6 395.701 86.6 395.501 86.5C395.201 86.4 395.001 86.3 394.801 86.2L393.601 85.6L391.501 84.5C390.801 84.2 390.201 83.8 389.601 83.4C390.301 83.6 391.001 83.8 391.701 84.2L393.901 85.2L395.201 85.8L395.901 86.1C396.101 86.2 396.201 86.2 396.301 86.1C396.501 85.7 396.701 85.3 396.701 84.8C396.801 84.3 397.001 83.9 397.201 83.4C397.601 82.6 398.201 82 398.901 81.6C399.401 81.3 400.001 81.3 400.601 81.4C400.901 81.4 401.001 81.6 401.001 81.6Z" fill="#263238"/>
<path d="M413.601 82.8C412.201 84.2 410.601 85.5 409.001 86.7L408.601 87L408.501 86.5L408.401 85.9C408.301 84.4 407.701 82.9 406.701 81.8C406.201 81.4 405.701 81.1 405.101 80.8C405.101 80.7 406.001 80.7 407.001 81.5C407.601 82 408.001 82.6 408.301 83.3C408.701 84.1 408.901 85 409.001 85.9C409.001 86.1 409.101 86.3 409.101 86.5L408.601 86.3C410.101 84.9 411.801 83.8 413.601 82.8Z" fill="#263238"/>
<g opacity="0.3">
<path opacity="0.3" d="M389.601 83.3C389.601 83.3 396.801 90.8 397.801 89.7C398.801 88.6 399.301 81.4 402.201 82.8C401.801 82.1 401.101 81.7 400.401 81.5C399.301 81.4 397.501 81.2 396.601 85.3C396.601 85.3 396.601 86.6 395.601 86.2C394.601 85.8 389.601 83.3 389.601 83.3Z" fill="black"/>
</g>
<g opacity="0.3">
<path opacity="0.3" d="M404.101 82.3C405.001 82.3 405.801 83 406.001 83.9C406.301 85.9 406.401 87.8 406.501 89.8L412.901 83.5L408.701 86.4C408.701 86.4 408.101 81.4 405.001 80.8L404.101 82.3Z" fill="black"/>
</g>
<path fill-rule="evenodd" clip-rule="evenodd" d="M380.1 122.2L379.9 147.5L378.58 174.935C375.704 170.518 373.522 166.753 373.3 165.2C372.704 161.027 378.272 130.968 379.938 122.135L380.1 122.2ZM358.238 113.16C356.627 121.066 350.2 153.567 350.2 168.7C350.2 176.9 380.7 209.6 380.7 209.6L394.2 197C394.2 197 385.847 185.876 379.698 176.632L438.4 178.2L435.285 153.282C436.736 156.259 442.71 160.384 454.901 163.5C468.201 166.9 488.001 164.1 488.001 164.1L486.401 146.8L483.901 146.7C480.401 147.1 470.501 146 462.601 144.2C455.734 142.635 455.062 141.524 454.347 140.341C454.24 140.163 454.131 139.983 454.001 139.8C453.001 138.4 451.201 130.6 451.201 130.6L450.148 130.857L451.201 130.5C449.601 121.8 447.501 113.1 444.801 104.6C440.601 91.4 430.701 88 430.701 88L430.642 88.2248C430.178 87.9845 429.697 87.7752 429.2 87.6C428.4 87.2 417.4 83.6 413.3 83.4V75.7C406.4 76.4 402.9 84.5 402.9 84.5C400 77.6 389.4 76.6 389.4 76.6L389.6 83.7C385.8 84 382 84.6 378.4 85.8C372.4 88 369.1 89.5 364.7 93.9C361.647 96.9531 359.079 107.863 358.238 113.16ZM434.163 134.762L433.881 134.831L433.751 132.259L434.163 134.762Z" fill="url(#paint1_linear)"/>
<path d="M445.301 106C445.001 105.9 444.701 105.8 444.501 105.6C444.201 105.4 443.801 105.3 443.501 105.2C443.101 105 442.601 104.8 442.101 104.7C439.201 103.8 436.101 103.4 433.001 103.5C428.401 103.8 423.901 104.5 419.501 105.7C414.501 106.8 408.801 108.3 402.701 107.8C396.601 107.3 391.201 105.3 386.301 103.7C382.001 102.1 377.501 101.1 373.001 100.5C369.901 100.2 366.801 100.4 363.801 101.1C363.301 101.2 362.901 101.4 362.401 101.5C362.101 101.6 361.701 101.7 361.401 101.9C361.101 102 360.901 102.1 360.601 102.2C361.601 101.6 362.701 101.2 363.801 100.9C366.801 100.1 370.001 99.8 373.101 100.1C377.701 100.6 382.201 101.6 386.601 103.2C391.501 104.8 397.001 106.7 402.901 107.2C408.801 107.7 414.501 106.3 419.501 105.1C424.001 103.9 428.501 103.2 433.101 103C436.201 102.9 439.301 103.3 442.301 104.3C443.301 104.9 444.301 105.4 445.301 106Z" fill="#FAFAFA"/>
<path d="M376.8 132.3C375.8 132.4 374.7 132.4 373.7 132.3C371.2 132.1 368.7 131.8 366.2 131.3C363.7 130.8 361.2 130.2 358.8 129.5C357.8 129.2 356.8 128.9 355.8 128.4C356.8 128.6 357.9 128.8 358.8 129.2C360.7 129.7 363.3 130.3 366.2 130.9C369.1 131.5 371.7 131.8 373.7 132C374.8 132 375.8 132.1 376.8 132.3Z" fill="#FAFAFA"/>
<path d="M450.701 132.1C450.601 132.3 450.401 132.5 450.201 132.7C449.701 133.2 449.201 133.6 448.601 134C446.401 135.4 443.801 136.1 441.201 136C437.901 136.1 434.101 135 430.101 133.6C428.001 132.8 425.901 132.2 423.701 131.7C421.401 131.2 419.001 130.9 416.601 130.9C415.401 130.8 414.101 130.9 413.001 130.9C411.901 130.9 410.601 131 409.501 131.2C407.201 131.4 405.001 131.8 402.901 132.1C398.701 132.7 394.801 133.3 391.601 133.5C389.001 133.7 386.501 133.7 383.901 133.4C383.001 133.3 382.301 133.2 381.801 133.1C381.601 133.1 381.301 133 381.101 133C381.301 133 381.601 133 381.801 133L383.901 133.2C386.401 133.4 389.001 133.3 391.501 133.1C394.701 132.8 398.501 132.3 402.801 131.6C404.901 131.3 407.101 130.9 409.501 130.7C410.701 130.6 411.901 130.5 413.101 130.4C414.301 130.3 415.501 130.3 416.801 130.3C419.201 130.3 421.601 130.6 424.001 131.1C426.201 131.7 428.301 132.3 430.401 133.1C434.401 134.5 438.101 135.7 441.401 135.6C443.901 135.7 446.501 135.1 448.701 133.8C449.301 133.3 450.001 132.7 450.701 132.1Z" fill="#FAFAFA"/>
<path d="M373.6 164.1C373.6 164.2 372.4 163.8 370.3 163.4C367.7 162.9 365 162.6 362.3 162.5C359.6 162.5 356.9 162.7 354.3 163.1C352.3 163.4 351 163.8 351 163.7C351.3 163.6 351.5 163.4 351.8 163.4C352.6 163.2 353.4 162.9 354.2 162.8C356.9 162.2 359.6 162 362.3 162C365 162 367.7 162.4 370.3 163.1C371.1 163.3 371.9 163.5 372.7 163.8C373 163.8 373.3 163.9 373.6 164.1Z" fill="#FAFAFA"/>
<path d="M435.7 164C435.7 164.1 435.1 163.5 433.8 162.7C432.1 161.6 430.2 160.7 428.2 160.1C425.3 159.2 422.2 158.8 419.2 158.8C415.5 158.9 411.7 159.3 408.1 160.2C404.2 161 400.5 162 397.1 162.7C394.1 163.4 391 163.8 388 164C385.9 164.1 383.8 164.1 381.8 163.8C381.1 163.7 380.5 163.6 380.1 163.5C379.9 163.5 379.7 163.4 379.5 163.4C379.5 163.3 380.3 163.5 381.8 163.6C383.9 163.8 385.9 163.8 388 163.6C391.1 163.3 394.1 162.9 397.1 162.2C400.5 161.5 404.2 160.5 408.1 159.7C411.8 158.9 415.6 158.4 419.3 158.4C422.4 158.4 425.5 158.9 428.4 159.8C430.4 160.4 432.3 161.4 434 162.6C434.5 162.9 434.9 163.3 435.3 163.7C435.4 163.7 435.6 163.9 435.7 164Z" fill="#FAFAFA"/>
<path d="M466.7 146.2C466.8 146.5 466.9 146.7 466.9 147C467 147.7 467.1 148.4 467 149.2C466.9 154.1 465.1 158.7 461.9 162.4C461.4 162.9 460.9 163.5 460.3 163.9C460.1 164.1 459.9 164.2 459.7 164.4C459.6 164.3 460.5 163.6 461.6 162.2C464.6 158.5 466.4 154 466.6 149.3C466.7 147.4 466.6 146.2 466.7 146.2Z" fill="#FAFAFA"/>
<path d="M385.701 186.4C385.701 186.5 384.601 186.7 382.901 187.2C378.501 188.6 374.501 190.9 371.101 194.1C369.801 195.3 369.101 196.1 369.001 196.1C368.901 196.1 369.101 195.9 369.401 195.5C369.801 194.9 370.301 194.4 370.801 193.9C372.401 192.2 374.301 190.8 376.301 189.6C378.301 188.4 380.501 187.5 382.801 186.9C383.501 186.7 384.201 186.6 384.901 186.5C385.101 186.4 385.401 186.4 385.701 186.4Z" fill="#FAFAFA"/>
<path d="M483.601 147.1C483.901 147.9 484.201 148.7 484.301 149.6C484.701 151.7 485.001 153.7 485.001 155.8C485.101 157.9 484.901 160 484.601 162.1C484.501 163 484.301 163.8 484.001 164.6C484.001 163.7 484.101 162.9 484.201 162C484.601 157.9 484.501 153.7 483.801 149.6C483.801 148.8 483.701 148 483.601 147.1Z" fill="#FAFAFA"/>
<path d="M408.2 98.9C408.2 98.8 408.7 98.6 409.2 99.1C409.5 99.4 409.7 99.8 409.7 100.2C409.6 100.9 409 101.4 408.2 101.4C407.5 101.3 407 100.7 407 99.9C407 99.8 407 99.6 407.1 99.5C407.4 98.8 407.9 98.8 407.9 98.9C407.9 99 407.6 99.1 407.5 99.6C407.4 99.9 407.5 100.2 407.6 100.4C407.8 100.6 408.1 100.7 408.4 100.6C408.7 100.5 409 100.3 409 100C409 99.7 409 99.5 408.8 99.2C408.5 98.9 408.2 98.9 408.2 98.9Z" fill="#637EA6"/>
<path d="M410.3 120C410.3 119.9 410.8 119.7 411.3 120.2C411.6 120.5 411.8 120.9 411.8 121.3C411.7 122 410.9 122.5 410.2 122.4C409.9 122.3 409.6 122.1 409.3 121.9C409.1 121.5 409 121.1 409.2 120.7C409.5 120 410 120 410 120.1C410 120.2 409.7 120.3 409.6 120.8C409.5 121.1 409.6 121.3 409.7 121.6C410 121.9 410.6 122 410.9 121.6C411 121.5 411.1 121.4 411.1 121.2C411.1 120.9 411.1 120.7 410.9 120.4C410.7 120.1 410.3 120.1 410.3 120Z" fill="#637EA6"/>
<path d="M411.7 140.7C411.7 140.6 412.2 140.4 412.7 140.9C413 141.2 413.2 141.6 413.2 142C413.1 142.7 412.3 143.2 411.6 143.1C411.3 143 411 142.8 410.7 142.6C410.5 142.2 410.4 141.8 410.6 141.4C410.9 140.7 411.4 140.7 411.4 140.8C411.4 140.9 411.1 141 411 141.5C410.9 141.8 411 142.1 411.1 142.3C411.3 142.5 411.6 142.6 411.9 142.5C412.2 142.4 412.5 142.2 412.5 141.9C412.5 141.6 412.5 141.4 412.3 141.1C412.1 140.8 411.7 140.8 411.7 140.7Z" fill="#637EA6"/>
<path d="M413.1 163.2C413.1 163.1 413.6 162.9 414.1 163.4C414.4 163.7 414.6 164.1 414.6 164.5C414.5 165 414.1 165.5 413.6 165.6C413.1 165.7 412.5 165.5 412.2 165.1C412 164.7 411.9 164.3 412.1 163.9C412.4 163.2 412.9 163.2 412.9 163.3C412.9 163.4 412.6 163.5 412.5 164C412.4 164.3 412.5 164.5 412.6 164.8C412.9 165.2 413.5 165.2 413.8 164.9C413.9 164.8 414 164.7 414 164.5C414 164.2 414 164 413.8 163.7C413.4 163.3 413.1 163.3 413.1 163.2Z" fill="#637EA6"/>
<path d="M409.601 174.4C409.501 174.1 409.501 173.8 409.501 173.5C409.501 172.8 409.401 172 409.401 170.9C409.301 168.5 409.101 165.3 408.901 161.2C408.501 153 407.801 141.8 406.801 129.3C405.801 116.8 404.801 105.6 404.101 97.4C403.701 93.4 403.501 90.1 403.301 87.8C403.201 86.7 403.101 85.8 403.101 85.2C403.101 84.9 403.101 84.6 403.101 84.3C403.201 84.6 403.201 84.9 403.201 85.2C403.301 85.8 403.401 86.7 403.501 87.8C403.701 90.1 404.101 93.4 404.501 97.4C405.301 105.5 406.401 116.8 407.401 129.2C408.401 141.6 409.001 152.9 409.301 161.1C409.501 165.2 409.601 168.5 409.601 170.8C409.601 171.9 409.601 172.8 409.601 173.4C409.601 173.8 409.601 174.1 409.601 174.4Z" fill="#637EA6"/>
<path d="M437.7 169.9C437.6 169.7 437.6 169.5 437.6 169.3C437.5 168.9 437.4 168.3 437.3 167.6C437 166.1 436.7 164 436.3 161.4C435.5 156.2 434.6 148.9 433.6 140.8C432.6 132.7 431.7 125.5 430.9 120.2L430 114C429.9 113.3 429.8 112.8 429.8 112.3C429.8 111.8 429.7 111.7 429.8 111.7C429.9 111.9 429.9 112.1 430 112.3C430.1 112.7 430.2 113.3 430.4 114C430.7 115.4 431.1 117.6 431.5 120.2C432.4 125.4 433.4 132.7 434.3 140.7C435.2 148.7 436.2 155.9 436.8 161.3C437.1 163.9 437.4 166 437.6 167.5C437.7 168.2 437.7 168.7 437.8 169.2C437.7 169.5 437.7 169.7 437.7 169.9Z" fill="#637EA6"/>
<g opacity="0.3">
<path opacity="0.3" d="M431 117.6C434.4 129.4 435.5 139.7 442 149.5C444.3 153 447.4 156 450.9 158.3C457.8 162.7 466.2 164.2 474.4 164.9H479.9C479.9 164.9 467.5 166 457.4 164.1C457.4 164.1 441.9 161.3 435.9 154.2L431 117.6Z" fill="black"/>
</g>
<g opacity="0.3">
<path opacity="0.3" d="M381.3 112.4L386.7 176.6H378.5L379.7 150.1L380.1 121.7L381.3 112.4Z" fill="black"/>
</g>
<path d="M380.101 121.6C380.101 121.1 380.101 120.6 380.201 120.1C380.301 119 380.501 117.6 380.701 116C380.901 114.4 381.101 112.2 381.301 109.8C381.401 108.6 381.501 107.4 381.601 106.2C381.701 104.9 381.701 103.6 381.601 102.3C381.501 101 381.101 99.8 380.501 98.7C379.901 97.7 379.001 96.9 378.001 96.2C376.301 95.1 374.301 94.5 372.301 94.4C370.901 94.3 369.501 94.3 368.101 94.3C367.601 94.3 367.101 94.3 366.601 94.3C367.101 94.2 367.601 94.1 368.101 94.1C369.501 94 370.901 93.9 372.301 94C374.401 94.1 376.501 94.7 378.301 95.8C379.401 96.5 380.301 97.4 381.001 98.4C381.701 99.6 382.101 100.9 382.201 102.3C382.301 103.6 382.301 105 382.201 106.3C382.101 107.6 382.001 108.8 381.901 109.9C381.701 112.2 381.401 114.3 381.201 116.1C381.001 117.9 380.701 119.3 380.601 120.2C380.401 120.7 380.301 121.1 380.101 121.6Z" fill="#637EA6"/>
<path d="M240.3 145.3C235.1 138.2 235.9 128.3 242.3 122.2L272.9 92.7L278.8 114.3C278.3 114.6 255.1 135.7 255.1 135.7L271.6 160C274.1 163.7 274.6 168.5 272.8 172.7L271.7 176C270.3 180.3 265.7 182.6 261.4 181.1C260.9 180.9 260.5 180.7 260.1 180.5L255.1 177.8C254.6 177.5 254.4 176.8 254.7 176.3L254.8 176.2C255 175.9 255.4 175.7 255.8 175.8L262.8 176.4C264.3 176.5 265.6 175.6 266.1 174.2L240.3 145.3Z" fill="#FFBE9D"/>
<path d="M255.301 136.3C254.101 134.5 252.501 132.9 251.301 131.3L255.301 136.3Z" fill="#FFBE9D"/>
<path d="M341.3 116.1L348.2 128.5L352.4 94.8C352.6 92.4 352.1 89.9 351 87.7C350.5 86.7 350 85.8 349.3 84.9C348.4 83.9 347.5 82.9 346.4 82.1C345.3 81.5 345.5 79.9 346.6 79.8C347.7 79.7 350.7 81.3 353.1 84.5C355.5 87.7 355.7 81.5 355.9 79.3C356.1 77.1 356.8 70.1 357.5 69.6C358.6 68.9 359.6 69.9 359.4 72.2C359.2 74.5 359.1 81.3 360.3 81.3C361.5 81.3 362 69.8 362 69.8C362 69.8 361.7 67.3 363.1 67.3C365.6 67.3 364.1 79.5 364 80.7C363.9 81.5 365.2 81.6 365.3 80.7C365.4 79.8 365.5 69.2 368.1 69.2C370 69.2 367 79.2 368.2 81.5C369.4 83.8 369.7 73.6 371.6 73.7C372.3 73.7 372.8 73.8 371.8 79.6C371.2 82.7 369.2 87.2 368.6 93.2L368.4 94.8C368.4 94.8 364.9 124.3 359.8 142.3C356.7 153.1 341.4 154.2 335.2 144.8C331 138.4 324.3 121.9 324.3 121.9L341.3 116.1Z" fill="#FFBE9D"/>
<path d="M365.6 89.5C365.6 89.6 365.2 89.5 364.6 89.8C363.8 90.1 363.1 90.6 362.7 91.4L362.5 91.8L362.4 91.3C362.2 90.6 361.9 90 361.5 89.5C360.7 88.4 359.6 87.6 358.3 87.2C357.3 86.8 356.7 86.9 356.7 86.8C357.3 86.7 357.9 86.7 358.4 86.9C359.8 87.3 361 88.1 361.8 89.3C362.3 89.9 362.6 90.6 362.8 91.3H362.4C362.9 90.5 363.7 89.9 364.6 89.7C364.8 89.4 365.2 89.4 365.6 89.5Z" fill="#EB996E"/>
<path d="M281.1 153.7L268.8 182.3L254 380.2H285.7L303.3 207.9L310.6 381L339.8 378.5L335.7 182.5C335.6 178.1 334.5 173.8 332.6 169.9L324.5 153.3L281.1 153.7Z" fill="#263238"/>
<path d="M327.9 160C327.9 160.1 316.8 160.3 303.1 160.3C289.4 160.3 278.3 160.2 278.3 160C278.3 159.8 289.4 159.7 303.1 159.7C316.8 159.7 327.9 159.9 327.9 160Z" fill="#455A64"/>
<path d="M302.8 210.2C302.7 210.2 302.5 199 302.5 185.3C302.5 171.6 302.6 160.4 302.8 160.4C303 160.4 303.1 171.6 303.1 185.3C303.1 199 303 210.2 302.8 210.2Z" fill="#455A64"/>
<path d="M307.5 159.4C307.5 159.6 307.5 159.7 307.5 159.9C307.5 160.3 307.5 160.8 307.5 161.4C307.5 162.8 307.5 164.6 307.5 166.8C307.5 171.4 307.5 177.7 307.4 184.7C307.4 188.2 307.3 191.5 307.3 194.5C307.4 197.2 307.2 199.9 306.8 202.5C306.5 204.3 305.8 206 304.6 207.4C304.2 207.9 303.6 208.3 303 208.6C303.5 208.2 304 207.7 304.4 207.3C305.5 205.9 306.2 204.2 306.4 202.4C306.7 199.7 306.9 197.1 306.8 194.4C306.8 191.4 306.8 188 306.9 184.6C307 177.6 307.1 171.3 307.2 166.7C307.3 164.5 307.3 162.6 307.3 161.3C307.3 160.7 307.3 160.2 307.4 159.8C307.3 159.7 307.4 159.5 307.5 159.4Z" fill="#455A64"/>
<path d="M355.3 149.9C355.2 149.9 355 138.5 355 124.4C355 110.3 355.1 98.9 355.3 98.9C355.5 98.9 355.6 110.3 355.6 124.4C355.6 138.5 355.4 149.9 355.3 149.9Z" fill="#FAFAFA"/>
<path d="M324.7 153.3C324.7 153.3 325.1 123.1 325 122.6L344.5 120.4C344.5 120.4 338.5 97.8 335.3 93.6C326.8 82.6 313.3 84.6 313.3 84.6L293.2 84.4C292.6 84.3 292.1 84.2 291.5 84.1C285.5 83.4 279.5 85.4 275.1 89.4L253.2 111.8L267.8 124.5L278.8 119.9L281.3 153.7L324.7 153.3Z" fill="url(#paint2_linear)"/>
<g opacity="0.44">
<path d="M313.419 107.803L309.908 111.278C309.624 110.991 309.466 110.603 309.468 110.2C309.47 109.796 309.632 109.41 309.919 109.126L311.28 107.778L309.918 106.402C309.638 106.119 309.482 105.736 309.484 105.338C309.486 104.94 309.646 104.559 309.929 104.278V104.278L313.419 107.803Z" fill="#A6B6CF"/>
<path d="M311.263 107.778L314.774 104.303C315.058 104.59 315.217 104.977 315.215 105.381C315.213 105.784 315.05 106.171 314.763 106.455L313.403 107.802L314.765 109.178C315.045 109.462 315.201 109.844 315.199 110.243C315.197 110.641 315.037 111.022 314.754 111.303L311.263 107.778Z" fill="#A6B6CF"/>
<path d="M305.25 104.254C304.558 104.251 303.88 104.453 303.302 104.834C302.725 105.216 302.274 105.76 302.005 106.398C301.737 107.036 301.664 107.74 301.796 108.419C301.927 109.099 302.258 109.724 302.745 110.216C303.232 110.708 303.853 111.045 304.532 111.183C305.21 111.322 305.914 111.256 306.555 110.994C307.196 110.733 307.745 110.287 308.132 109.713C308.52 109.14 308.728 108.464 308.732 107.772C308.737 106.844 308.372 105.952 307.719 105.292C307.066 104.632 306.178 104.259 305.25 104.254ZM305.222 109.75C304.827 109.748 304.442 109.629 304.114 109.408C303.787 109.187 303.533 108.874 303.384 108.509C303.234 108.143 303.197 107.742 303.276 107.355C303.355 106.968 303.547 106.613 303.828 106.335C304.108 106.058 304.465 105.869 304.852 105.794C305.24 105.719 305.641 105.761 306.005 105.914C306.369 106.067 306.68 106.324 306.898 106.654C307.115 106.983 307.23 107.37 307.228 107.764C307.226 108.294 307.013 108.801 306.636 109.173C306.26 109.545 305.751 109.753 305.222 109.75Z" fill="#A6B6CF"/>
<path d="M307.229 107.764L308.732 107.772L308.714 111.272C308.517 111.271 308.321 111.231 308.139 111.154C307.957 111.078 307.792 110.966 307.653 110.826C307.514 110.686 307.404 110.519 307.33 110.337C307.255 110.154 307.217 109.958 307.218 109.761L307.229 107.764Z" fill="#A6B6CF"/>
<path d="M293.992 107.697C293.988 108.389 294.19 109.067 294.572 109.644C294.953 110.222 295.498 110.673 296.136 110.941C296.774 111.209 297.477 111.282 298.157 111.151C298.837 111.019 299.462 110.689 299.954 110.202C300.446 109.715 300.782 109.093 300.921 108.415C301.059 107.737 300.994 107.033 300.732 106.392C300.47 105.751 300.025 105.202 299.451 104.815C298.877 104.427 298.202 104.218 297.51 104.215C296.581 104.21 295.689 104.574 295.03 105.227C294.37 105.88 293.997 106.769 293.992 107.697V107.697ZM295.495 107.704C295.497 107.31 295.616 106.924 295.837 106.597C296.059 106.27 296.372 106.016 296.737 105.866C297.103 105.717 297.504 105.68 297.891 105.759C298.278 105.838 298.633 106.03 298.911 106.31C299.188 106.591 299.377 106.948 299.452 107.335C299.527 107.723 299.485 108.124 299.332 108.488C299.179 108.852 298.922 109.163 298.592 109.38C298.263 109.598 297.876 109.713 297.482 109.711C296.952 109.708 296.445 109.495 296.073 109.119C295.7 108.743 295.493 108.234 295.495 107.704Z" fill="#A6B6CF"/>
<path d="M293.967 112.701L293.993 107.685L295.496 107.693L295.478 111.204C295.477 111.402 295.438 111.597 295.361 111.779C295.285 111.961 295.173 112.127 295.033 112.265C294.892 112.404 294.726 112.514 294.543 112.589C294.36 112.664 294.165 112.702 293.967 112.701Z" fill="#A6B6CF"/>
</g>
<path d="M295.5 143.6C295.8 145.4 296.2 147.3 296.7 149C297.4 150.7 298.2 152.4 299.1 154C297.7 152.7 296.7 151 296.2 149.2C295.5 147.4 295.3 145.5 295.5 143.6Z" fill="#637EA6"/>
<path d="M302.1 147.6C302.3 148.7 302.4 149.8 302.2 150.9C302.2 152 302.1 153.1 301.8 154.2C301.6 153.1 301.5 152 301.7 150.9C301.7 149.8 301.8 148.7 302.1 147.6Z" fill="#637EA6"/>
<path opacity="0.3" d="M285.8 87.4L285.5 153.6L294.8 153.7L285.8 87.4Z" fill="black"/>
<path d="M320.5 84.9L323.2 157H329.4L328 131.4L333.1 143.8C335.5 149.6 341.2 153.4 347.5 153.3C354.8 153.2 361.1 148 362.5 140.9L367.5 106.8L350.6 95.4L347 124.5L338.5 99.3C336.6 93.4 332.3 88.6 326.6 86C324.6 85.1 322.6 84.7 320.5 84.9Z" fill="#455A64"/>
<path d="M328.301 150.5C326.601 150.8 324.801 150.8 323.101 150.5C324.801 150.2 326.601 150.2 328.301 150.5Z" fill="#FAFAFA"/>
<path d="M328.5 140.4C326.5 140.8 324.4 140.8 322.3 140.4C324.3 140.1 326.4 140.1 328.5 140.4Z" fill="#FAFAFA"/>
<path d="M363.1 140.2C363.1 140.3 356.1 140.5 347.5 140.5C338.9 140.5 331.9 140.4 331.9 140.2C331.9 140 338.9 139.9 347.5 139.9C356.1 139.9 363.1 140.1 363.1 140.2Z" fill="#FAFAFA"/>
<path d="M365.1 124.9C365.1 125 355.4 125.2 343.5 125.2C331.6 125.2 321.9 125.1 321.9 124.9C321.9 124.7 331.6 124.6 343.5 124.6C355.4 124.6 365.1 124.8 365.1 124.9Z" fill="#FAFAFA"/>
<path d="M341.2 108.3C337.9 108.6 334.6 108.7 331.3 108.6C328 108.7 324.7 108.6 321.4 108.3C324.7 108 328 108 331.3 108C334.6 107.9 337.9 108 341.2 108.3Z" fill="#FAFAFA"/>
<path d="M334.7 93C330.1 93.3 325.5 93.3 320.9 93C325.4 92.6 330.1 92.6 334.7 93Z" fill="#FAFAFA"/>
<path d="M330.5 139C330.4 139 330.2 128.1 330.2 114.7C330.2 101.3 330.3 90.4 330.5 90.4C330.7 90.4 330.8 101.3 330.8 114.7C330.8 128.1 330.7 139 330.5 139Z" fill="#FAFAFA"/>
<path d="M343.1 150.5C343 150.5 342.8 142.6 342.8 132.9C342.8 123.2 342.9 115.3 343.1 115.3C343.3 115.3 343.4 123.2 343.4 132.9C343.4 142.6 343.2 150.5 343.1 150.5Z" fill="#FAFAFA"/>
<path d="M327.8 86.7C327.9 86.7 328.1 96.8 328.1 109.3C328.1 121.8 328 131.8 327.8 131.8C327.6 131.8 327.5 121.7 327.5 109.2C327.5 96.7 327.7 86.7 327.8 86.7Z" fill="#263238"/>
<path d="M356.5 149.6C356.4 149.7 356.2 149.8 356.1 149.9C355.7 150.2 355.3 150.4 354.8 150.7C353.2 151.5 351.3 151.8 349.5 151.7C348.2 151.6 347 151.4 345.8 150.9C344.5 150.3 343.3 149.5 342.3 148.4C340.1 146.2 338.6 143.2 337.1 140.1C334.1 133.9 331.7 128.1 330.1 123.8C329.3 121.7 328.7 119.9 328.3 118.7L327.8 117.3C327.7 117.1 327.7 117 327.7 116.8C327.8 116.9 327.9 117.1 327.9 117.3C328 117.7 328.2 118.1 328.4 118.7L330.4 123.7C332.1 127.9 334.5 133.7 337.5 139.9C339 143 340.5 146 342.5 148.1C344.3 150 346.8 151.2 349.4 151.4C351.2 151.5 352.9 151.2 354.6 150.5C355.9 149.9 356.5 149.5 356.5 149.6Z" fill="#263238"/>
<path d="M346.8 136.1C346.5 134.1 346.5 132.1 346.5 130C346.4 128 346.5 125.9 346.8 123.9C347.1 125.9 347.1 127.9 347.1 130C347.2 132.1 347.1 134.1 346.8 136.1Z" fill="#263238"/>
<path d="M275.9 87.7L240.5 123.5C234.4 129.4 233.7 139 239 145.7L262.4 171.8L267 151.1L256.3 136.2L276.5 124.4L276 157L285.8 158.4V83.9C285.8 83.9 279.9 83.8 275.9 87.7Z" fill="#455A64"/>
<path d="M286.1 108.9C286.1 109 279.2 109.2 270.6 109.2C262 109.2 255 109 255 108.9C255 108.8 262 108.6 270.5 108.6C279 108.6 286.1 108.7 286.1 108.9Z" fill="#FAFAFA"/>
<path d="M285.5 93.9C282.9 94.2 280.3 94.3 277.7 94.2C275.1 94.3 272.5 94.2 269.9 93.9C272.5 93.6 275.1 93.6 277.7 93.6C280.3 93.5 282.9 93.6 285.5 93.9Z" fill="#FAFAFA"/>
<path d="M284.9 124C284.9 124.1 275 124.3 262.9 124.3C250.7 124.3 240.9 124.2 240.9 124C240.9 123.8 250.8 123.7 262.9 123.7C275 123.7 284.9 123.9 284.9 124Z" fill="#FAFAFA"/>
<path d="M285.3 141.7C282.3 142 279.3 142 276.3 141.7C279.3 141.4 282.3 141.4 285.3 141.7Z" fill="#FAFAFA"/>
<path d="M259.9 141C259.9 141.1 254.7 141.3 248.3 141.3C241.9 141.3 236.7 141.2 236.7 141C236.7 140.8 241.9 140.7 248.3 140.7C254.7 140.7 259.9 140.9 259.9 141Z" fill="#FAFAFA"/>
<path d="M266.1 155.2C263.1 155.5 260 155.5 256.9 155.5C253.8 155.6 250.8 155.5 247.7 155.2C250.7 154.9 253.8 154.8 256.9 154.9C260 154.8 263 154.9 266.1 155.2Z" fill="#FAFAFA"/>
<path d="M285.7 155.2C282.5 155.5 279.2 155.5 276 155.2C279.2 154.8 282.4 154.8 285.7 155.2Z" fill="#FAFAFA"/>
<path d="M265.8 130.3C265.7 130.3 265.5 123.1 265.5 114.3C265.5 105.5 265.6 98.3 265.8 98.3C266 98.3 266.1 105.5 266.1 114.3C266.1 123.1 266 130.3 265.8 130.3Z" fill="#FAFAFA"/>
<path d="M252.5 132.1C252.4 132.1 252.2 127.5 252.2 121.9C252.2 116.3 252.3 111.6 252.5 111.6C252.8 115 252.9 118.4 252.8 121.9C252.9 125.2 252.8 128.7 252.5 132.1Z" fill="#FAFAFA"/>
<path d="M244.101 150.6C244.001 150.6 243.801 143.8 243.801 135.4C243.801 127 243.901 120.2 244.101 120.2C244.301 120.2 244.401 127 244.401 135.4C244.401 143.8 244.201 150.6 244.101 150.6Z" fill="#FAFAFA"/>
<path d="M258 165.7C257.9 165.7 257.7 160 257.7 152.9C257.7 145.8 257.8 140.1 258 140.1C258.2 140.1 258.3 145.8 258.3 152.9C258.3 160 258.2 165.7 258 165.7Z" fill="#FAFAFA"/>
<path d="M281 85.4C281.1 85.4 281.3 101.5 281.3 121.4C281.3 141.3 281.2 157.4 281 157.4C280.8 157.4 280.7 141.3 280.7 121.4C280.7 101.5 280.9 85.4 281 85.4Z" fill="#FAFAFA"/>
<path d="M276.401 87.6C276.501 87.6 276.701 96 276.701 106.4C276.701 116.8 276.601 125.2 276.401 125.2C276.201 125.2 276.101 116.8 276.101 106.4C276.101 96 276.301 87.6 276.401 87.6Z" fill="#263238"/>
<path d="M259.701 140.9C258.101 139.1 256.501 137.3 255.201 135.3C253.701 133.4 252.301 131.4 251.101 129.4C252.701 131.2 254.301 133 255.601 135C257.101 136.9 258.401 138.9 259.701 140.9Z" fill="#263238"/>
<path d="M307.6 35.3C311.5 32.3 317.1 33 320.1 36.9C320.4 37.3 320.6 37.7 320.9 38.1C322.1 40.6 322.5 43.4 322.1 46.1C321.8 48.8 321.2 51.5 321.2 54.2C321.1 57.7 321.9 61.3 320.8 64.7C319.1 69.5 313.9 71.9 309.1 70.3C308.5 70.1 307.9 69.8 307.3 69.5C304.8 68 303.2 65.4 301.8 62.8C299.9 59.5 298.1 56.1 297.4 52.4C296.7 48.7 297.4 44.5 300.1 41.8" fill="#263238"/>
<path d="M312.7 83.6C312.3 78 305.8 81.4 306.6 75.9C308.2 63.4 308.8 50.9 308.4 38.3" fill="#263238"/>
<path d="M294.9 82.6L290.8 45.7C295 39.9 300.2 37.1 306.3 36.9C311.9 36.7 316.7 40.7 317.8 46.1C319 52.2 320.3 60.4 320 65.4C319.5 74.6 312.6 76.4 312.6 76.4C312.6 76.4 312.8 79.5 313.2 83.3C315 83.6 317.8 84.1 319.7 84.5C319.8 84.5 319.6 84.9 319.3 85.5C313.8 94.4 302.1 97.2 293.2 91.8C291.7 90.9 290.4 89.8 289.2 88.5L286.2 84.1C286.1 84.1 290.5 83.3 294.9 82.6Z" fill="url(#paint3_linear)"/>
<path d="M317.201 52.7C317.301 53.3 316.801 53.9 316.201 54C315.601 54.1 315.001 53.7 314.901 53.1C314.801 52.5 315.301 51.9 315.901 51.8C316.501 51.6 317.101 52 317.201 52.7C317.201 52.6 317.201 52.6 317.201 52.7Z" fill="#263238"/>
<path d="M317.4 51.7C317.3 51.9 316.3 51.3 315.1 51.4C313.9 51.5 313 52.2 312.8 52.1C312.6 52 312.8 51.7 313.2 51.4C313.7 51 314.3 50.7 315 50.6C315.7 50.5 316.3 50.7 316.9 51C317.3 51.3 317.5 51.6 317.4 51.7Z" fill="#263238"/>
<path d="M304.401 54.2C304.501 54.8 304.001 55.4 303.401 55.5C302.801 55.6 302.201 55.2 302.101 54.6C302.001 54 302.501 53.4 303.101 53.3C303.701 53.2 304.301 53.6 304.401 54.2Z" fill="#263238"/>
<path d="M304.7 53.1C304.6 53.3 303.6 52.7 302.4 52.8C301.2 52.9 300.3 53.6 300.1 53.5C299.9 53.4 300.1 53.1 300.5 52.8C301 52.4 301.6 52.1 302.3 52C303 51.9 303.6 52.1 304.2 52.4C304.5 52.8 304.7 53.1 304.7 53.1Z" fill="#263238"/>
<path d="M310.2 61.8C310.8 61.5 311.5 61.3 312.2 61.2C312.5 61.1 312.8 61 312.8 60.8C312.8 60.5 312.7 60.1 312.5 59.9L311.3 57.6C310.2 55.6 309.3 53.6 308.5 51.5C309.7 53.4 310.8 55.4 311.7 57.4L312.8 59.8C313 60.2 313.1 60.6 313.1 61C313 61.2 312.9 61.4 312.6 61.5C312.4 61.6 312.2 61.6 312.1 61.6C311.6 61.7 310.9 61.8 310.2 61.8Z" fill="#263238"/>
<path d="M312.601 76.5C308.301 77 304.001 76.3 300.101 74.5C300.101 74.5 303.601 80.4 312.601 78.7V76.5Z" fill="#EB996E"/>
<path d="M310 64.9C309.5 64.3 308.7 64.1 307.9 64.3C307.3 64.4 306.9 64.7 306.5 65.2C306.2 65.7 306.2 66.3 306.5 66.7C307 67.1 307.6 67.2 308.2 66.9C308.8 66.6 309.3 66.3 309.7 65.8C309.8 65.7 309.9 65.5 310 65.4C310.2 65.2 310.2 65 310 64.9Z" fill="#EB996E"/>
<path d="M306.7 63C306.9 63 307 64.3 308.3 65.2C309.6 66.1 311 65.8 311 65.9C311 66 310.7 66.2 310.1 66.3C309.3 66.4 308.5 66.2 307.8 65.7C307.2 65.3 306.7 64.6 306.6 63.9C306.4 63.3 306.6 63 306.7 63Z" fill="#263238"/>
<path d="M313.2 49.9C313.3 50.1 314.1 49.9 315.2 49.9C316.3 49.9 317.1 50.1 317.2 49.9C317.3 49.7 316.4 49.2 315.2 49.2C314 49.2 313.1 49.7 313.2 49.9Z" fill="#263238"/>
<path d="M300.6 50.4C300.6 50.4 300.6 50.3 300.6 50.2V50.4C301.2 50.1 301.9 50 302.6 49.9C303.8 49.8 304.7 50.2 304.8 50C304.9 49.8 304.7 49.7 304.3 49.5C303.8 49.2 303.2 49.1 302.6 49.2C301.8 49.3 301.1 49.6 300.6 50.2L300.5 50.4H300.6C300.5 50.4 300.5 50.4 300.6 50.4Z" fill="#263238"/>
<path d="M300.201 58.5C300.301 58.5 300.401 58.4 300.401 58.2C300.401 58 300.401 57.9 300.301 57.8C300.201 57.7 300.101 57.9 300.101 58.1C300.101 58.3 300.101 58.5 300.201 58.5Z" fill="#EB996E"/>
<path d="M303.101 58.4C303.201 58.4 303.301 58.2 303.201 58.1C303.101 58 303.001 57.9 302.901 57.9C302.801 58 302.801 58.3 303.101 58.4C303.001 58.4 303.101 58.4 303.101 58.4Z" fill="#EB996E"/>
<path d="M301.6 59.6C301.7 59.6 301.8 59.5 301.8 59.4C301.8 59.3 301.7 59.2 301.6 59.2C301.5 59.2 301.4 59.3 301.4 59.4C301.4 59.5 301.4 59.6 301.6 59.6C301.5 59.6 301.6 59.6 301.6 59.6Z" fill="#EB996E"/>
<path d="M317.901 57.9C318.001 57.9 318.101 57.7 318.001 57.5C317.901 57.3 317.901 57.2 317.801 57.2C317.701 57.2 317.601 57.4 317.701 57.5C317.801 57.6 317.801 57.9 317.901 57.9Z" fill="#EB996E"/>
<path d="M315 57.9C315.1 57.9 315.2 57.8 315.2 57.6C315.2 57.4 315.1 57.3 315 57.3C314.9 57.3 314.8 57.4 314.8 57.6C314.8 57.8 314.9 57.9 315 57.9Z" fill="#EB996E"/>
<path d="M316.5 58.9C316.6 58.9 316.7 58.8 316.7 58.6C316.7 58.4 316.6 58.3 316.5 58.3C316.4 58.3 316.3 58.4 316.3 58.6C316.3 58.8 316.4 58.9 316.5 58.9Z" fill="#EB996E"/>
<path d="M311.5 33.4C313.2 39.4 309.6 45.6 303.6 47.3C303.1 47.4 302.5 47.6 302 47.6C301.2 47.6 300.5 47.8 299.8 48.2C299.2 48.9 298.9 49.7 298.8 50.5C298.2 52.9 296.7 54.9 294.5 56.1C297.3 61.2 297.7 70.1 293.8 72.8C284 67.8 288.5 59.7 286.8 54.3C284.9 47.9 287.3 41.4 292.1 36.8C296.9 32.2 305.1 31.3 311.5 33.4Z" fill="#263238"/>
<path d="M287.7 48.8C289.1 47 289.8 44.9 289.9 42.6C290 40.4 289 38.2 287.4 36.7C286.2 35.7 284.7 35 283.1 34.9C279.6 34.5 276.1 36 274 38.9C272 41.8 271.8 45.7 273.6 48.7C275.5 51.7 279 53.3 282.5 52.7C286 52 288.7 49.1 289.1 45.6" fill="#263238"/>
<path d="M229.3 175.3L220.7 382L195.4 381.5L197.9 201L157.4 382.5H135.4L170.4 173L229.3 175.3Z" fill="#455A64"/>
<path d="M205.4 180.2C205.4 181.3 205.2 182.5 205 183.6C204.7 185.7 204.2 188.6 203.7 191.8C203.5 193.3 203.2 194.8 202.8 196.3C202.4 197.6 201.7 198.7 200.7 199.5C200 200 199.2 200.4 198.4 200.5C198.1 200.6 197.8 200.6 197.5 200.5C198.6 200.3 199.6 199.9 200.5 199.1C201.4 198.3 202 197.3 202.4 196.1C202.8 194.6 203.1 193.1 203.3 191.6C203.8 188.4 204.4 185.5 204.7 183.4C204.7 182.4 205 181.3 205.4 180.2Z" fill="#263238"/>
<path d="M198.7 181.2C198.8 181.2 198.5 181.6 198.7 182.1C198.8 182.4 199 182.6 199.2 182.8C199.5 183 199.9 182.9 200.2 182.6C200.5 182.4 200.6 182 200.5 181.7C200.4 181.4 200.2 181.2 199.9 181.1C199.4 180.9 199 181.1 199 181C199 180.9 199.3 180.5 200.1 180.7C200.5 180.8 200.9 181.1 201.1 181.5C201.3 182.3 200.9 183.1 200.2 183.3C199.9 183.4 199.5 183.4 199.1 183.2C198.7 183 198.5 182.6 198.4 182.1C198.1 181.4 198.7 181.1 198.7 181.2Z" fill="#263238"/>
<path d="M181.3 184.1C180.8 183.2 180.7 182.1 180.9 181.1C180.9 180.1 181.3 179.1 181.9 178.3C182 178.4 181.6 179.6 181.4 181.2C181.2 182.8 181.5 184.1 181.3 184.1Z" fill="#263238"/>
<path d="M185.201 183.9C184.401 181.9 184.601 179.7 185.601 177.9C185.501 178.9 185.401 179.9 185.301 180.9C185.301 181.9 185.301 182.9 185.201 183.9Z" fill="#263238"/>
<path d="M218.601 184.7C218.601 183.7 218.601 182.6 218.801 181.6C218.801 180.6 218.801 179.5 218.901 178.5C219.301 179.5 219.501 180.6 219.301 181.7C219.401 182.7 219.101 183.8 218.601 184.7Z" fill="#263238"/>
<path d="M222.8 184.5C222.7 184.4 223.2 183.1 223.3 181.3C223.4 179.5 223.1 178.2 223.3 178.1C223.8 179.1 224 180.2 223.9 181.3C223.8 182.5 223.5 183.6 222.8 184.5Z" fill="#263238"/>
<path d="M187.801 86.1L207.701 84.5C207.801 82.2 207.701 73.2 207.701 73.2C207.701 73.2 216.001 71.9 216.101 63.6C216.201 55.3 214.801 36.3 214.801 36.3C205.201 32.2 194.101 33.5 185.801 39.9L184.601 40.8L187.801 86.1Z" fill="url(#paint4_linear)"/>
<path d="M207.7 73.1C203.9 73.2 200.1 72.1 196.9 70C196.9 70 199.5 76 207.7 75.2V73.1Z" fill="#EB996E"/>
<path d="M185.6 49.4C185.5 49.3 179.9 47.7 180.1 53.4C180.3 59.1 185.9 57.7 186 57.6C186.1 57.5 185.6 49.4 185.6 49.4Z" fill="#FFBE9D"/>
<path d="M184.1 55.5C184.1 55.5 184 55.6 183.8 55.6C183.6 55.7 183.3 55.7 183.1 55.6C182.3 55.2 181.9 54.3 181.9 53.4C181.9 52.9 181.9 52.4 182.1 52C182.2 51.6 182.5 51.3 182.8 51.2C183 51.1 183.3 51.2 183.4 51.4C183.5 51.6 183.5 51.7 183.5 51.7C183.5 51.7 183.6 51.6 183.6 51.4C183.6 51.3 183.5 51.1 183.4 51C183.2 50.9 183 50.8 182.8 50.9C182.3 51 182 51.4 181.8 51.8C181.6 52.3 181.5 52.9 181.5 53.4C181.5 54.4 182.1 55.4 183 55.8C183.3 55.9 183.6 55.8 183.9 55.6C184.1 55.6 184.1 55.5 184.1 55.5Z" fill="#EB996E"/>
<path d="M213 49.2C213 49.8 212.5 50.4 211.9 50.4C211.3 50.5 210.7 50 210.7 49.4C210.7 48.8 211.2 48.2 211.8 48.2C212.3 48.1 212.9 48.6 213 49.2C212.9 49.2 213 49.2 213 49.2Z" fill="#263238"/>
<path d="M213.201 47.9C213.101 48.1 212.201 47.4 210.901 47.4C209.601 47.4 208.701 48 208.601 47.9C208.501 47.8 208.701 47.6 209.101 47.2C209.701 46.8 210.301 46.6 211.001 46.6C211.701 46.6 212.301 46.8 212.801 47.2C213.101 47.6 213.301 47.9 213.201 47.9Z" fill="#263238"/>
<path d="M200.5 49.5C200.5 50.1 200 50.7 199.4 50.7C198.8 50.8 198.2 50.3 198.2 49.7C198.2 49.1 198.7 48.5 199.3 48.5C199.9 48.4 200.4 48.9 200.5 49.5Z" fill="#263238"/>
<path d="M200.7 48.1C200.6 48.3 199.7 47.6 198.4 47.6C197.1 47.6 196.2 48.2 196 48.1C195.8 48 196.1 47.8 196.5 47.5C197.1 47.1 197.7 46.9 198.4 46.9C199.1 46.9 199.7 47.1 200.3 47.5C200.6 47.8 200.7 48.1 200.7 48.1Z" fill="#263238"/>
<path d="M205.3 57.6C206 57.4 206.7 57.3 207.4 57.2C207.7 57.2 208 57.1 208.1 56.9C208.1 56.6 208.1 56.2 207.9 55.9C207.6 55.1 207.3 54.3 206.9 53.4C206 51.3 205.3 49.1 204.7 46.9C205.8 48.9 206.7 51 207.4 53.2C207.7 54.1 208 54.9 208.3 55.7C208.5 56.1 208.6 56.5 208.5 57C208.4 57.2 208.2 57.4 208 57.5C207.8 57.5 207.6 57.6 207.4 57.6C206.7 57.7 206 57.7 205.3 57.6Z" fill="#263238"/>
<path d="M201.601 58.5C201.801 58.5 201.801 59.9 203.001 60.9C204.201 61.9 205.701 61.7 205.701 61.9C205.701 62.1 205.401 62.2 204.801 62.2C204.001 62.2 203.201 61.9 202.601 61.4C202.001 60.9 201.601 60.2 201.501 59.4C201.301 58.9 201.501 58.5 201.601 58.5Z" fill="#263238"/>
<path d="M201 43.1999C200.9 43.4999 199.6 43.3999 198.1 43.5999C196.6 43.7999 195.4 44.2 195.2 43.9C195.1 43.7 195.3 43.3999 195.8 43.0999C196.4 42.6999 197.2 42.4 197.9 42.3C198.7 42.2 199.4 42.2999 200.2 42.5999C200.8 42.6999 201.1 42.9999 201 43.1999Z" fill="#263238"/>
<path d="M212.7 44.2C212.5 44.5 211.6 44.2 210.5 44.2C209.4 44.2 208.6 44.4 208.3 44.1C208.2 44 208.4 43.7 208.7 43.4C209.2 43 209.9 42.8 210.5 42.9C211.1 42.9 211.7 43.1 212.2 43.5C212.7 43.8 212.8 44.1 212.7 44.2Z" fill="#263238"/>
<path d="M184.5 46.2C181.8 45.5 180.1 42.7 180.8 40C178 37 178.2 32.2 181.3 29.5C182.8 28.1 184.9 27.4 187 27.6C187.1 23.1 190.8 19.6 195.3 19.6C197.7 19.6 199.9 20.7 201.4 22.6C203.9 19.9 208.1 19.8 210.8 22.3C212.6 24 213.3 26.5 212.7 28.8C214.2 27.5 216.5 27.7 217.8 29.2C219 30.7 218.9 32.8 217.5 34.1C218.9 34.4 219.9 35.8 219.6 37.2C219.4 38.2 218.6 39 217.6 39.3C217.4 41.2 215.7 42.7 213.8 42.5C212.5 42.4 211.4 41.6 210.9 40.4C210.5 42.4 208 43.4 206 42.7C204.1 41.9 202.7 40.3 202.1 38.3C201.1 40 198.9 40.5 197.3 39.5C196.8 39.2 196.4 38.8 196.1 38.4C196.7 40.2 195.7 42.1 193.8 42.7C193.7 42.7 193.5 42.8 193.4 42.8C193.2 45.5 190.8 47.5 188.2 47.3C185.6 47.1 183.6 44.8 183.7 42.2" fill="#263238"/>
<path d="M183 42.3C183.3 44.5 184 49.1 184.3 51.3C184.3 52 184.6 52.6 185 53.1C185.8 53.6 186.9 53.4 187.5 52.6C188 51.8 188.3 50.9 188.3 49.9C188.6 47.6 188.8 45.3 189.1 43" fill="#263238"/>
<path d="M203.9 49.2C203.9 49.2 203.9 48.7 203.6 47.9C203.3 46.7 202.6 45.7 201.6 45C199.3 43.2 195.9 43.7 194.2 46.1C192.5 48.5 192.9 51.8 195.3 53.5C197.2 54.9 199.8 54.9 201.6 53.5C202.6 52.8 203.3 51.7 203.6 50.6C203.8 49.7 203.8 49.2 203.9 49.2C204 49.2 203.9 49.3 203.9 49.6C203.9 49.9 203.9 50.3 203.8 50.6C203.5 51.9 202.8 53 201.8 53.8C199.3 55.7 195.7 55.3 193.8 52.8L193.7 52.7C192.2 50.7 192.2 47.9 193.7 45.9C194.4 45 195.3 44.3 196.4 43.9C198.2 43.2 200.3 43.6 201.8 44.8C202.8 45.6 203.5 46.7 203.8 48C203.9 48.3 203.9 48.7 203.9 49V49.2Z" fill="#455A64"/>
<path d="M218.2 49.2C218.2 49.2 218.2 48.7 217.9 47.9C217.6 46.7 216.9 45.7 215.9 45C213.6 43.2 210.2 43.7 208.5 46.1C206.8 48.5 207.2 51.8 209.6 53.5C211.5 54.9 214.1 54.9 215.9 53.5C216.9 52.8 217.6 51.7 217.9 50.6C218.1 49.7 218.1 49.2 218.2 49.2C218.3 49.2 218.2 49.3 218.2 49.6C218.2 49.9 218.2 50.3 218.1 50.6C217.8 51.9 217.1 53 216.1 53.8C213.6 55.7 210 55.3 208.1 52.8L208 52.7C206.5 50.7 206.5 47.9 208 45.9C208.7 45 209.6 44.3 210.7 43.9C212.5 43.2 214.6 43.6 216.1 44.8C217.1 45.6 217.8 46.7 218.1 48C218.2 48.3 218.2 48.7 218.2 49V49.2Z" fill="#455A64"/>
<path d="M207.1 48.6C207.1 48.8 206.4 48.9 205.5 48.9C204.6 48.9 203.9 48.8 203.9 48.6C203.9 48.4 204.6 48.3 205.5 48.3C206.4 48.3 207.1 48.4 207.1 48.6Z" fill="#455A64"/>
<path d="M193.4 48.3C190.5 49 187.5 49.3 184.5 49.2C185.9 48.8 187.4 48.5 188.9 48.5C190.4 48.3 191.9 48.2 193.4 48.3Z" fill="#455A64"/>
<path d="M196.3 26.4C196.5 26.4 196.6 26.5 196.7 26.6C197.1 26.9 197.4 27.2 197.5 27.7C197.7 28.4 197.6 29.2 197.3 29.8C196.7 30.6 195.7 31 194.7 30.8C193.5 30.6 192.5 29.7 192.2 28.6C191.8 27.3 192.2 25.9 193.1 24.8C194.9 22.6 198.5 22 201.4 23.3C202.8 23.9 203.9 24.9 204.7 26.2C205.4 27.5 205.3 29 204.4 30.2L204.1 29.8C206 28.9 208.2 29.3 209.6 30.8C210.7 32 211 33.6 210.5 35.1C210.1 36 209.4 36.8 208.4 37.2C208.2 37.3 207.9 37.4 207.6 37.4C207.5 37.4 207.4 37.4 207.3 37.4C207.6 37.3 208 37.2 208.3 37.1C209.2 36.7 209.8 36 210.2 35.1C210.7 33.7 210.3 32.1 209.3 31.1C208 29.8 206 29.5 204.3 30.2L203.4 30.6L204 29.8C204.7 28.8 204.8 27.4 204.2 26.3C203.5 25.1 202.5 24.2 201.2 23.6C198.5 22.4 195.1 22.9 193.4 24.9C192.6 25.8 192.3 27.1 192.6 28.3C192.9 29.3 193.7 30.1 194.7 30.3C195.6 30.5 196.4 30.2 197 29.5C197.4 28.9 197.5 28.3 197.3 27.6C197.2 27.2 197 26.9 196.6 26.6C196.4 26.5 196.3 26.4 196.3 26.4Z" fill="#455A64"/>
<path d="M231.301 91.3C231.301 91.3 238.601 98.9 238.801 119.4C238.901 134.2 240.201 152.1 240.201 152.1L230.101 151.3L231.301 91.3Z" fill="url(#paint5_linear)"/>
<path d="M161.3 97C163.1 91.1 169.4 84.7 178.2 83C181 82.5 183.7 81.4 187 81.3C193.9 83.5 201.3 83.5 208.3 81.3C209.2 81.4 210.4 81.5 211.9 81.7C221.1 82.8 224.7 84.7 231.3 91.3L230.6 128.7C230.6 128.7 230.3 171 230.1 177.9L169.5 178.1L173 138.3" fill="url(#paint6_linear)"/>
<path d="M173 138.3L161.4 153.4L165.8 157.9L153.5 174C153.5 174 131.7 160.9 132.3 157.2C132.9 153.5 162.2 95 162.2 95C162.2 95 174 96.2 173.1 113.4C172.2 130.6 173 138.3 173 138.3Z" fill="url(#paint7_linear)"/>
<path d="M173.6 144.2C173.5 143.8 173.4 143.4 173.4 143C173.3 142.2 173.2 141.1 173 139.6C172.7 136.7 172.4 132.8 172.1 128.4C171.8 124 171.8 120.1 171.8 117.2C171.8 115.8 171.9 114.6 171.9 113.8C171.9 113.4 171.9 113 172 112.6C172.1 113 172.1 113.4 172.1 113.8C172.1 114.7 172.1 115.8 172.2 117.2C172.3 120.1 172.4 124 172.6 128.4C172.8 132.8 173.1 136.6 173.3 139.6C173.4 141 173.4 142.1 173.5 143C173.6 143.4 173.6 143.8 173.6 144.2Z" fill="#637EA6"/>
<path d="M148.7 158.4C149 157.8 149.5 157.2 150.1 156.8C151.4 155.6 152.8 154.7 154.4 154C156 153.2 157.7 152.8 159.4 152.9C160.1 152.9 160.9 153.2 161.4 153.7C160.8 153.4 160.1 153.3 159.4 153.3C157.7 153.4 156.1 153.8 154.6 154.5C152.4 155.4 150.4 156.8 148.7 158.4Z" fill="#637EA6"/>
<path d="M151.2 148.4C153.2 148.2 155.3 148.5 157.2 149.3C157.9 149.6 158.7 149.9 159.4 150.3C160 150.6 160.5 151 161 151.4C161.3 151.8 161.5 152.3 161.4 152.7C161.3 153 161.1 153.1 161.1 153.1C161.1 153.1 161.2 152.9 161.2 152.7C161.2 152.3 161 152 160.8 151.7C160.3 151.3 159.8 151 159.2 150.7C158.5 150.3 157.8 150 157.1 149.8C155.1 149.2 153.1 148.7 151.2 148.4Z" fill="#637EA6"/>
<path d="M230.2 160.1C230.1 160.1 229.9 148 229.9 133C229.9 118 229.9 105.9 230.1 105.9C230.3 105.9 230.4 118 230.4 133C230.4 148 230.4 160.1 230.2 160.1Z" fill="#637EA6"/>
<g opacity="0.3">
<path opacity="0.3" d="M172.401 138.9C170.301 134.4 168.601 130 166.901 125.3C166.701 124.9 166.601 124.3 167.001 124C167.301 123.7 167.801 123.7 168.101 124C168.401 124.3 168.601 124.6 168.701 125C168.701 122 169.101 119 170.001 116.1C170.101 115.6 170.401 115.1 170.901 115.1C171.401 115.1 171.601 115.8 171.601 116.3C171.901 123.9 172.601 130.7 172.901 138.2" fill="black"/>
</g>
<g opacity="0.3">
<path opacity="0.3" d="M161.401 153.2C161.301 152.7 161.001 152.2 160.501 152C160.001 151.7 159.501 151.6 159.001 151.5C155.001 150.6 150.701 151.5 147.401 154C146.901 154.4 146.401 154.9 146.201 155.6C145.901 156.2 146.101 157 146.601 157.4C147.001 157.7 147.601 157.7 148.101 157.6C148.601 157.4 149.001 157.2 149.501 156.8C151.201 155.7 153.101 154.7 155.001 154C157.001 153.2 159.201 152.9 161.401 153.2Z" fill="black"/>
</g>
<path d="M172.5 129.1C172.5 129.1 172.4 129.3 172 129.5C171.8 129.6 171.6 129.8 171.3 129.9C171.1 130 171 130 170.8 130C170.6 130 170.4 129.9 170.2 129.7C169 128.2 168 126.5 167.3 124.8C166.5 123.1 165.8 121.3 165.3 119.4C165 118.7 164.8 117.9 164.7 117.1C165.1 117.8 165.4 118.5 165.6 119.3C166.1 120.7 166.8 122.5 167.7 124.5C168.4 126.2 169.4 127.9 170.4 129.4C170.6 129.7 170.9 129.6 171.1 129.5C171.3 129.4 171.6 129.3 171.8 129.3C172.2 129.2 172.4 129.1 172.5 129.1Z" fill="#637EA6"/>
<path d="M181.1 172.7C181.1 172.6 181.1 172.5 181.1 172.5C181.1 172.3 181.1 172.1 181 171.8C181 171.2 180.9 170.3 180.9 169.2C180.8 166.9 180.6 163.6 180.5 159.5C180.2 151.3 179.9 140 179.9 127.5C179.9 115 180.1 103.6 180.6 95.5C180.9 91.4 181.1 88.1 181.3 85.8C181.4 84.7 181.5 83.8 181.6 83.2C181.6 82.9 181.7 82.7 181.7 82.5C181.7 82.3 181.7 82.3 181.8 82.3C181.8 82.4 181.8 82.5 181.8 82.5C181.8 82.7 181.8 82.9 181.8 83.2C181.8 83.8 181.7 84.7 181.6 85.8C181.4 88.1 181.3 91.4 181 95.5C180.6 103.7 180.4 115 180.4 127.5C180.4 140 180.6 151.3 180.9 159.5C181 163.6 181.1 166.9 181.1 169.2C181.1 170.3 181.1 171.2 181.2 171.8V172.5C181.1 172.6 181.1 172.6 181.1 172.7Z" fill="#637EA6"/>
<path d="M199.601 82.9C199.601 83 199.601 83.1 199.601 83.1C199.601 83.3 199.601 83.5 199.701 83.8C199.701 84.5 199.801 85.4 199.901 86.6C200.101 89 200.301 92.5 200.501 96.8C200.901 105.4 201.401 117.3 201.401 130.4C201.401 143.5 201.001 155.4 200.601 164C200.401 168.3 200.101 171.8 199.901 174.2C199.801 175.4 199.701 176.3 199.701 177C199.701 177.3 199.601 177.5 199.601 177.7C199.601 177.8 199.601 177.9 199.601 177.9C199.601 177.8 199.601 177.7 199.601 177.7C199.601 177.5 199.601 177.3 199.601 177C199.601 176.3 199.701 175.4 199.701 174.2C199.801 171.8 200.001 168.3 200.201 164C200.601 155.4 200.901 143.5 200.901 130.4C200.901 117.3 200.501 105.4 200.101 96.8C199.901 92.5 199.801 89.1 199.701 86.6C199.601 85.4 199.601 84.5 199.601 83.8C199.601 83.5 199.601 83.3 199.601 83.1C199.601 83 199.601 82.9 199.601 82.9Z" fill="#637EA6"/>
<path d="M218.301 178.4C218.301 178.3 218.301 178.2 218.301 178.2C218.301 178 218.301 177.8 218.301 177.5C218.301 176.8 218.201 175.9 218.201 174.8C218.101 172.4 218.001 169 217.901 164.7C217.701 156.2 217.801 144.4 218.501 131.5C219.201 118.6 220.201 106.8 221.201 98.4C221.701 94.2 222.201 90.8 222.501 88.4C222.701 87.3 222.801 86.4 222.901 85.7L223.001 85C223.001 84.9 223.001 84.8 223.101 84.8C223.101 84.9 223.101 85 223.101 85C223.101 85.2 223.101 85.4 223.001 85.7C222.901 86.4 222.801 87.3 222.701 88.4C222.401 90.8 222.001 94.2 221.601 98.4C220.701 106.8 219.701 118.5 219.001 131.5C218.301 144.5 218.201 156.2 218.301 164.7C218.301 168.9 218.401 172.4 218.401 174.8C218.401 176 218.401 176.9 218.401 177.5V178.2C218.401 178.2 218.301 178.3 218.301 178.4Z" fill="#637EA6"/>
<path d="M140.7 164.5C140.5 164.3 140.4 164.1 140.2 163.8C139.8 163.1 139.5 162.4 139.3 161.6C138.8 159.6 139.1 156.5 140.4 153.1C141 151.4 141.9 149.6 142.8 147.7L145.6 141.5C147.5 137.1 149.6 132.3 151.7 127.2C155.9 117 159.4 107.6 161.8 100.7L164.6 92.6L165.4 90.4C165.5 90.1 165.6 89.9 165.7 89.6C165.7 89.9 165.6 90.1 165.5 90.4C165.3 91 165.1 91.7 164.8 92.6C164.2 94.5 163.3 97.3 162.1 100.8C159.8 107.7 156.3 117.1 152.1 127.3C150 132.4 147.9 137.3 145.9 141.6C144.9 143.8 144 145.9 143 147.8C142 149.7 141.2 151.5 140.6 153.2C139.3 156.5 138.9 159.5 139.3 161.5C139.7 162.6 140.1 163.6 140.7 164.5Z" fill="#637EA6"/>
<path d="M155.5 149.9C155.4 149.8 158 144.3 161.3 137.6C164.6 130.9 167.5 125.5 167.6 125.5C167.7 125.5 165.1 131.1 161.8 137.8C158.5 144.5 155.6 149.9 155.5 149.9Z" fill="#637EA6"/>
<path d="M158.5 165.1C156.9 164.1 155.5 162.7 154.5 161.1C153.4 159.5 152.6 157.7 152.3 155.8C153.1 157.5 154 159.2 154.9 160.8C156.1 162.3 157.3 163.7 158.5 165.1Z" fill="#637EA6"/>
<g opacity="0.3">
<path opacity="0.3" d="M182.7 158.4C198.9 162.6 215.9 162.4 231.9 157.9L182.7 158.4Z" fill="black"/>
</g>
<path d="M183.501 174.9C183.501 174.9 192.801 187 193.301 189.1C193.701 190.3 192.801 190.9 191.701 190.2C190.601 189.5 184.201 182.8 184.201 182.8C184.201 182.8 182.801 182.2 183.401 183.1C184.001 184 188.701 192.1 189.101 193.4C190.001 196.3 187.801 197.5 186.701 196C186.301 195.6 186.001 195.1 185.701 194.7C185.801 195.4 185.701 196.1 185.501 196.7C185.001 197.3 184.101 197.4 183.601 196.9C183.601 196.9 183.601 196.9 183.501 196.9C182.901 196.1 180.101 191.5 179.901 191.2C179.701 190.8 179.501 190.4 179.201 190C179.501 191.7 179.701 193.4 179.801 195.1C179.701 195.9 178.201 195.7 177.501 194.3C176.801 192.9 174.401 187.7 174.401 187.7C174.401 187.7 167.001 181 166.201 179.4C165.701 178.3 165.301 177.3 165.001 176.2L155.601 171.2L163.301 161C163.301 161 180.301 171.6 183.401 175.1" fill="#FFBE9D"/>
<path d="M181.101 185C183.301 187.9 184.901 191.1 186.001 194.5C185.101 193 184.201 191.4 183.501 189.8C182.601 188.3 181.801 186.7 181.101 185Z" fill="#EB996E"/>
<path d="M176.9 184.6C177.8 185.3 178.4 186.3 178.8 187.4C179.3 188.4 179.5 189.6 179.5 190.7C179.3 190.7 179.1 189.3 178.4 187.6C177.7 185.9 176.8 184.7 176.9 184.6Z" fill="#EB996E"/>
<path d="M254.401 157.2C254.401 157.2 254.701 160.9 254.001 161.8C253.301 162.7 248.601 162.8 246.501 162.8H230.201L230.101 157L254.401 157.2Z" fill="#FFBE9D"/>
<path d="M268.7 121.3C264.2 131.4 251.5 157.9 251.5 157.9H182.7C182.7 156.1 184.1 154.7 185.9 154.7H198.5L213.2 119.2C213.6 118.2 214.6 117.5 215.7 117.5H266.3C267.8 117.5 269 118.7 269 120.2C269 120.6 268.9 120.9 268.7 121.3Z" fill="#E0E0E0"/>
<path d="M238.301 137.9C237.701 137.2 236.801 136.9 235.901 136.9C234.501 137 233.301 138.1 233.101 139.5C233.101 140.8 234.001 142 235.401 142.2C236.701 142.3 238.001 141.5 238.501 140.3C238.801 139.5 238.701 138.6 238.301 137.9Z" fill="white"/>
<path d="M251.1 159.5C251.4 156.3 251.3 153.2 250.8 150C250.7 149.6 250.6 149.2 250.4 148.9C250.2 148.5 249.8 148.3 249.4 148.3C248.9 148.3 248.4 148.6 248.2 149.1C248 149.6 247.8 150.1 247.8 150.6C247.5 152.8 247.3 157.7 247.3 160" fill="#FFBE9D"/>
<path d="M247.1 159C247.5 156.5 247.5 153.9 247.1 151.4C247 151 246.9 150.6 246.7 150.3C246.5 149.9 246.1 149.7 245.7 149.7C245.2 149.7 244.7 150 244.5 150.5C244.3 151 244.1 151.5 244.1 152C243.8 154.2 243.7 156.4 243.7 158.6" fill="#FFBE9D"/>
<path d="M243.6 161.4C244 158.9 244 156.3 243.6 153.8C243.5 153.4 243.4 153 243.2 152.7C243 152.4 242.6 152.1 242.2 152.1C241.7 152.1 241.2 152.4 241 152.9C240.8 153.4 240.6 153.9 240.6 154.4C240.3 156.6 240.2 158.8 240.2 161" fill="#FFBE9D"/>
<path d="M254.3 160.6C254.5 158.6 254.5 156.7 254.1 154.7C254 154.3 253.9 153.9 253.7 153.6C253.5 153.2 253.1 153 252.7 153C252.2 153 251.7 153.3 251.5 153.8C251.3 154.3 251.1 154.8 251.1 155.3C250.8 157.5 250.7 159.7 250.7 162" fill="#FFBE9D"/>
<path d="M242.8 161C242.8 160.9 243.3 161 243.6 160.4C243.9 159.8 243.8 159 243.8 157.9C243.6 156.6 243.7 155.4 243.9 154.1C244.2 155.3 244.4 156.6 244.3 157.9C244.3 158.4 244.4 158.9 244.3 159.4C244.3 159.8 244.1 160.3 243.8 160.6C243.6 160.8 243.3 161 243 161C242.9 161.1 242.8 161.1 242.8 161Z" fill="#EB996E"/>
<path d="M247 161.5C247.3 161.3 247.5 160.9 247.6 160.5C247.6 160 247.6 159.6 247.6 159.1C247.6 158.5 247.5 158 247.5 157.4C247.3 155.9 247.3 154.4 247.5 153C247.8 154.4 248 155.9 248 157.4C248 158 248.1 158.5 248.1 159.1C248.1 159.6 248.1 160.1 248 160.5C247.9 160.9 247.8 161.2 247.5 161.4C247.2 161.5 247 161.5 247 161.5Z" fill="#EB996E"/>
<path d="M251.8 160.5C251.1 158.4 250.9 156.1 251.2 153.9C251.6 156.1 251.8 158.3 251.8 160.5Z" fill="#EB996E"/>
</g>
<defs>
<linearGradient id="paint0_linear" x1="405.052" y1="33.6812" x2="405.052" y2="85.9" gradientUnits="userSpaceOnUse">
<stop stop-color="#CB9B88"/>
<stop offset="1" stop-color="#B17963"/>
</linearGradient>
<linearGradient id="paint1_linear" x1="360.993" y1="228.768" x2="501.969" y2="132.841" gradientUnits="userSpaceOnUse">
<stop stop-color="#BED6FD"/>
<stop offset="1" stop-color="#E2EEFF"/>
</linearGradient>
<linearGradient id="paint2_linear" x1="267.534" y1="167.312" x2="372.109" y2="34.2353" gradientUnits="userSpaceOnUse">
<stop stop-color="#CADFFF"/>
<stop offset="1" stop-color="#CADFFF" stop-opacity="0"/>
</linearGradient>
<linearGradient id="paint3_linear" x1="303.121" y1="36.8928" x2="303.121" y2="94.5472" gradientUnits="userSpaceOnUse">
<stop stop-color="#FFD3BD"/>
<stop offset="1" stop-color="#FFBE9D"/>
</linearGradient>
<linearGradient id="paint4_linear" x1="200.353" y1="33.9486" x2="200.353" y2="86.1" gradientUnits="userSpaceOnUse">
<stop stop-color="#FFD3BD"/>
<stop offset="1" stop-color="#FFBE9D"/>
</linearGradient>
<linearGradient id="paint5_linear" x1="231.686" y1="163.968" x2="261.219" y2="159.199" gradientUnits="userSpaceOnUse">
<stop stop-color="#CADFFF"/>
<stop offset="1" stop-color="#EDF4FF"/>
</linearGradient>
<linearGradient id="paint6_linear" x1="172.29" y1="196.995" x2="312.857" y2="98.19" gradientUnits="userSpaceOnUse">
<stop stop-color="#CADFFF"/>
<stop offset="1" stop-color="#EDF4FF"/>
</linearGradient>
<linearGradient id="paint7_linear" x1="180" y1="32" x2="107.5" y2="215.5" gradientUnits="userSpaceOnUse">
<stop stop-color="#CADFFF"/>
<stop offset="1" stop-color="#EDF4FF"/>
</linearGradient>
<clipPath id="clip0">
<rect width="669.6" height="431" fill="white" transform="translate(0 -25)"/>
</clipPath>
</defs>
</svg>
