<svg viewBox="0 0 488 956" fill="none" xmlns="http://www.w3.org/2000/svg" preserveAspectRatio="none">
<mask id="mask0" mask-type="alpha" maskUnits="userSpaceOnUse" x="0" y="0" width="488" height="956">
<rect width="488" height="956" fill="white"/>
</mask>
<g mask="url(#mask0)">
<mask id="mask1" mask-type="alpha" maskUnits="userSpaceOnUse" x="0" y="-34" width="488" height="1024">
<rect y="-33.5439" width="488" height="1023.09" fill="#CCE3F4"/>
</mask>
<g mask="url(#mask1)">
<rect x="-0.000976562" y="-33.5439" width="522.246" height="1023.09" fill="#CCE3F4"/>
<rect x="-0.000976562" y="-33.5439" width="522.246" height="1023.09" fill="#F8FCFF"/>
<g opacity="0.3">
<path d="M522.245 875.503C473.463 844.763 375.614 823.724 262.844 823.724C147.347 823.724 47.4889 845.856 -0.000976562 877.825V887.935H522.245V875.503Z" fill="#69AFE5"/>
<rect x="-0.000976562" y="880.386" width="522.246" height="109.158" fill="#69AFE5"/>
<path d="M68.1395 806.752L91.9323 874.603H44.3468L68.1395 806.752Z" fill="#69AFE5"/>
<path d="M68.1403 790.33L87.8616 846.306H48.4191L68.1403 790.33Z" fill="#69AFE5"/>
<path d="M68.1379 779.165L84.551 826.105H51.7247L68.1379 779.165Z" fill="#69AFE5"/>
<path d="M244.45 799.841L261.873 849.527H227.027L244.45 799.841Z" fill="#0078D4"/>
<path d="M244.452 787.815L258.893 828.805H230.01L244.452 787.815Z" fill="#0078D4"/>
<path d="M244.45 779.639L256.469 814.012H232.431L244.45 779.639Z" fill="#0078D4"/>
<path d="M161.869 788.128L197.672 890.229H126.066L161.869 788.128Z" fill="#0C8AE0"/>
<path d="M161.868 763.416L191.544 847.647H132.192L161.868 763.416Z" fill="#0C8AE0"/>
<path d="M161.868 746.614L186.566 817.248H137.169L161.868 746.614Z" fill="#0C8AE0"/>
</g>
<path opacity="0.3" fill-rule="evenodd" clip-rule="evenodd" d="M341.94 470.509C341.917 470.509 341.894 470.509 341.871 470.509C341.848 470.509 341.825 470.509 341.802 470.509H303.632C303.613 470.509 303.595 470.509 303.576 470.509C303.557 470.509 303.539 470.509 303.52 470.509H303.345V470.507C294.151 470.384 286.735 462.892 286.735 453.668C286.735 444.367 294.275 436.827 303.576 436.827L303.647 436.827C303.447 435.24 303.345 433.623 303.345 431.982C303.345 410.705 320.594 393.456 341.871 393.456C359.206 393.456 373.867 404.905 378.705 420.654C380.225 420.367 381.794 420.217 383.397 420.217C395.198 420.217 405.101 428.346 407.81 439.311C410.372 437.736 413.389 436.827 416.617 436.827C425.918 436.827 433.458 444.367 433.458 453.668C433.458 462.969 425.918 470.509 416.617 470.509C416.54 470.509 416.463 470.508 416.387 470.507V470.509H383.446C383.429 470.509 383.413 470.509 383.397 470.509C383.381 470.509 383.365 470.509 383.349 470.509H341.94Z" fill="#69AFE5"/>
<path opacity="0.1" d="M558.456 67.0178C562.551 57.5206 564.647 47.351 564.626 37.0856C564.626 -6.01567 528.27 -41.0352 483.541 -41.0352C450.864 -40.9097 421.441 -22.1782 408.846 6.51794C398.726 -0.09156 386.747 -3.64259 374.473 -3.67127C358.001 -3.6004 342.236 2.70809 330.66 13.861C319.085 25.0138 312.65 40.0935 312.778 55.7696L312.778 58.1056C296.936 59.7154 285.159 72.7985 285.919 87.9434C286.679 103.088 299.712 115.044 315.642 115.21L551.846 115.21C564.705 115.101 575.513 105.989 577.178 93.8528C578.842 81.7172 570.855 70.2699 558.456 67.022L558.456 67.0178Z" fill="#69AFE5"/>
<path opacity="0.2" d="M-75.4043 207.423C-77.8388 201.763 -79.0852 195.703 -79.0727 189.586C-79.0727 163.903 -57.4556 143.035 -30.86 143.035C-11.4305 143.11 6.06427 154.272 13.5532 171.371C19.5705 167.433 26.6933 165.317 33.9912 165.3C43.7854 165.342 53.159 169.101 60.0419 175.747C66.9248 182.393 70.7508 191.379 70.6748 200.72V202.112C80.094 203.071 87.0965 210.867 86.6448 219.892C86.1931 228.917 78.4438 236.041 68.9716 236.14H-71.474C-79.12 236.075 -85.5461 230.645 -86.5359 223.413C-87.5257 216.182 -82.7765 209.361 -75.4043 207.425V207.423Z" fill="#69AFE5"/>
<path opacity="0.21" fill-rule="evenodd" clip-rule="evenodd" d="M149.236 714.509C149.256 714.509 149.275 714.509 149.295 714.509C149.315 714.509 149.335 714.509 149.355 714.509H181.704C181.716 714.509 181.728 714.509 181.74 714.509C181.752 714.509 181.764 714.509 181.777 714.509H181.936V714.507C189.726 714.403 196.008 708.055 196.008 700.241C196.008 692.361 189.62 685.973 181.74 685.973L181.68 685.973C181.849 684.629 181.936 683.259 181.936 681.868C181.936 663.842 167.322 649.228 149.295 649.228C134.609 649.228 122.188 658.928 118.089 672.271C116.801 672.028 115.472 671.9 114.114 671.9C104.116 671.9 95.7262 678.788 93.431 688.077C91.26 686.743 88.7045 685.973 85.9691 685.973C78.0891 685.973 71.7012 692.361 71.7012 700.241C71.7012 708.121 78.0891 714.509 85.9691 714.509C86.0344 714.509 86.0995 714.508 86.1646 714.507V714.509H114.048C114.07 714.509 114.092 714.509 114.114 714.509C114.136 714.509 114.158 714.509 114.18 714.509H149.236Z" fill="#69AFE5"/>
<path opacity="0.21" fill-rule="evenodd" clip-rule="evenodd" d="M447.477 253.263C447.488 253.263 447.5 253.263 447.512 253.263C447.524 253.263 447.536 253.263 447.548 253.263H467.845V253.262C472.698 253.197 476.612 249.243 476.612 244.375C476.612 239.466 472.633 235.487 467.724 235.487L467.686 235.487C467.791 234.649 467.846 233.796 467.846 232.93C467.846 221.7 458.742 212.596 447.512 212.596C438.363 212.596 430.625 218.639 428.072 226.951C427.27 226.799 426.442 226.72 425.596 226.72C419.368 226.72 414.141 231.011 412.711 236.798C411.359 235.966 409.767 235.487 408.063 235.487C403.154 235.487 399.175 239.466 399.175 244.375C399.175 249.284 403.154 253.263 408.063 253.263C408.104 253.263 408.144 253.263 408.185 253.262V253.263H425.557C425.57 253.263 425.583 253.263 425.596 253.263C425.609 253.263 425.622 253.263 425.635 253.263H447.477Z" fill="#69AFE5"/>
<rect x="-0.000976562" y="-33.5439" width="522.246" height="1023.09" fill="url(#paint0_linear)"/>
<rect x="-0.000976562" y="-33.5439" width="522.246" height="1023.09" fill="url(#paint1_radial)" fill-opacity="0.6"/>
<rect x="-0.000976562" y="-33.5439" width="522.246" height="1023.09" fill="url(#paint2_radial)" fill-opacity="0.7"/>
<g opacity="0.3">
<path d="M522.245 875.503C473.463 844.763 375.614 823.724 262.844 823.724C147.347 823.724 47.4889 845.856 -0.000976562 877.825V887.935H522.245V875.503Z" fill="#69AFE5"/>
<rect x="-0.000976562" y="880.386" width="522.246" height="109.158" fill="#69AFE5"/>
<path d="M68.1395 806.752L91.9323 874.603H44.3468L68.1395 806.752Z" fill="#69AFE5"/>
<path d="M68.1403 790.33L87.8616 846.306H48.4191L68.1403 790.33Z" fill="#69AFE5"/>
<path d="M68.1379 779.165L84.551 826.105H51.7247L68.1379 779.165Z" fill="#69AFE5"/>
<path d="M244.45 799.841L261.873 849.527H227.027L244.45 799.841Z" fill="#0078D4"/>
<path d="M244.452 787.815L258.893 828.805H230.01L244.452 787.815Z" fill="#0078D4"/>
<path d="M244.45 779.639L256.469 814.012H232.431L244.45 779.639Z" fill="#0078D4"/>
<path d="M161.869 788.128L197.672 890.229H126.066L161.869 788.128Z" fill="#0C8AE0"/>
<path d="M161.868 763.416L191.544 847.647H132.192L161.868 763.416Z" fill="#0C8AE0"/>
<path d="M161.868 746.614L186.566 817.248H137.169L161.868 746.614Z" fill="#0C8AE0"/>
</g>
</g>
</g>
<defs>
<linearGradient id="paint0_linear" x1="261.122" y1="-83.3071" x2="261.122" y2="989.544" gradientUnits="userSpaceOnUse">
<stop stop-color="#9FD6FF" stop-opacity="0.937892"/>
<stop offset="1" stop-color="#E4E3FF" stop-opacity="0"/>
</linearGradient>
<radialGradient id="paint1_radial" cx="0" cy="0" r="1" gradientUnits="userSpaceOnUse" gradientTransform="translate(-52.111 -69.3948) rotate(54.0798) scale(1053.21 1034.72)">
<stop stop-color="#FFEAEA" stop-opacity="0.84"/>
<stop offset="1" stop-color="white" stop-opacity="0"/>
</radialGradient>
<radialGradient id="paint2_radial" cx="0" cy="0" r="1" gradientUnits="userSpaceOnUse" gradientTransform="translate(490.177 863.798) rotate(-90.3058) scale(643.72 2097.63)">
<stop stop-color="#FEF9EE"/>
<stop offset="1" stop-color="white" stop-opacity="0"/>
</radialGradient>
</defs>
</svg>
